<?xml version="1.0" encoding="UTF-8" standalone="no"?>
<!-- This is a Stata 17.0 generated SVG file (http://www.stata.com) -->

<svg version="1.1" width="5.500in" height="4.000in" viewBox="0 0 3960 2880" xmlns="http://www.w3.org/2000/svg" xmlns:xlink="http://www.w3.org/1999/xlink">
	<desc>Stata Graph - Graph</desc>
	<rect x="0" y="0" width="3960" height="2880" style="fill:#EAF2F3;stroke:none"/>
	<rect x="0.00" y="0.00" width="3959.88" height="2880.00" style="fill:#EAF2F3"/>
	<rect x="2.88" y="2.88" width="3954.12" height="2874.24" style="fill:none;stroke:#EAF2F3;stroke-width:5.76"/>
	<rect x="290.81" y="275.35" width="3568.21" height="1538.38" style="fill:#FFFFFF"/>
	<rect x="293.69" y="278.23" width="3562.45" height="1532.62" style="fill:none;stroke:#FFFFFF;stroke-width:5.76"/>
	<line x1="290.81" y1="1750.37" x2="3859.02" y2="1750.37" style="stroke:#EAF2F3;stroke-width:8.64"/>
	<line x1="290.81" y1="1397.43" x2="3859.02" y2="1397.43" style="stroke:#EAF2F3;stroke-width:8.64"/>
	<line x1="290.81" y1="1044.48" x2="3859.02" y2="1044.48" style="stroke:#EAF2F3;stroke-width:8.64"/>
	<line x1="290.81" y1="691.66" x2="3859.02" y2="691.66" style="stroke:#EAF2F3;stroke-width:8.64"/>
	<line x1="290.81" y1="338.71" x2="3859.02" y2="338.71" style="stroke:#EAF2F3;stroke-width:8.64"/>
	<path d=" M354.05 338.84 L354.05 338.84 L354.05 338.84 L354.05 338.84 L354.05 338.84 L354.05 338.84 L354.05 338.84 L354.05 338.84 L354.05 338.84 L354.05 338.84 L354.05 338.84 L354.05 338.84 L354.05 338.84 L388.45 338.84 L388.45 339.33 L405.65 339.33 L405.65 339.83 L414.32 339.83 L414.32 340.32 L431.52 340.32 L431.52 340.94 L440.18 340.94 L440.18 341.93 L448.72 341.93 L448.72 344.16 L465.92 344.16 L465.92 344.65 L474.58 344.65 L474.58 346.26 L491.78 346.26 L491.78 346.76 L500.32 346.76 L500.32 348.37 L508.98 348.37 L508.98 349.98 L517.52 349.98 L517.52 350.59 L534.72 350.59 L534.72 351.09 L543.39 351.09 L543.39 351.58 L551.92 351.58 L551.92 352.08 L560.59 352.08 L560.59 352.70 L569.13 352.70 L569.13 353.69 L586.33 353.69 L586.33 355.30 L594.99 355.30 L594.99 355.92 L620.85 355.92 L620.85 356.41 L629.39 356.41 L629.39 356.91 L638.05 356.91 L638.05 359.63 L646.59 359.63 L646.59 360.12 L655.26 360.12 L655.26 360.74 L689.66 360.74 L689.66 361.73 L698.20 361.73 L698.20 363.34 L706.86 363.34 L706.86 364.46 L715.40 364.46 L715.40 365.45 L724.06 365.45 L724.06 366.56 L732.60 366.56 L732.60 367.05 L741.26 367.05 L741.26 369.28 L749.80 369.28 L749.80 369.78 L758.46 369.78 L758.46 371.88 L767.13 371.88 L767.13 372.99 L775.67 372.99 L775.67 373.98 L792.87 373.98 L792.87 374.60 L801.53 374.60 L801.53 376.21 L810.07 376.21 L810.07 377.20 L818.73 377.20 L818.73 379.43 L827.27 379.43 L827.27 381.53 L835.93 381.53 L835.93 383.64 L861.67 383.64 L861.67 384.26 L870.33 384.26 L870.33 385.74 L878.87 385.74 L878.87 386.85 L887.54 386.85 L887.54 387.35 L896.07 387.35 L896.07 388.96 L913.40 388.96 L913.40 390.57 L921.94 390.57 L921.94 391.68 L930.60 391.68 L930.60 392.18 L956.34 392.18 L956.34 392.79 L965.00 392.79 L965.00 393.29 L973.54 393.29 L973.54 394.40 L982.20 394.40 L982.20 395.39 L990.74 395.39 L990.74 396.01 L999.41 396.01 L999.41 396.51 L1007.94 396.51 L1007.94 397.50 L1016.61 397.50 L1016.61 398.61 L1025.15 398.61 L1025.15 400.22 L1033.81 400.22 L1033.81 401.83 L1042.35 401.83 L1042.35 403.93 L1051.01 403.93 L1051.01 404.55 L1059.55 404.55 L1059.55 407.15 L1076.87 407.15 L1076.87 408.76 L1094.07 408.76 L1094.07 409.87 L1102.61 409.87 L1102.61 411.48 L1111.28 411.48 L1111.28 413.09 L1119.81 413.09 L1119.81 413.59 L1128.48 413.59 L1128.48 414.70 L1137.02 414.70 L1137.02 416.31 L1145.68 416.31 L1145.68 417.30 L1154.22 417.30 L1154.22 419.40 L1162.88 419.40 L1162.88 420.52 L1180.08 420.52 L1180.08 421.63 L1188.62 421.63 L1188.62 423.73 L1205.82 423.73 L1205.82 424.85 L1214.48 424.85 L1214.48 425.34 L1223.02 425.34 L1223.02 425.84 L1231.68 425.84 L1231.68 428.56 L1240.35 428.56 L1240.35 430.66 L1248.89 430.66 L1248.89 432.77 L1257.55 432.77 L1257.55 433.88 L1266.09 433.88 L1266.09 435.98 L1274.75 435.98 L1274.75 439.20 L1283.29 439.20 L1283.29 439.82 L1291.95 439.82 L1291.95 440.81 L1300.49 440.81 L1300.49 442.42 L1309.15 442.42 L1309.15 443.53 L1326.35 443.53 L1326.35 444.52 L1334.89 444.52 L1334.89 446.75 L1343.55 446.75 L1343.55 448.36 L1352.09 448.36 L1352.09 449.97 L1360.76 449.97 L1360.76 450.46 L1369.29 450.46 L1369.29 451.58 L1377.96 451.58 L1377.96 452.57 L1386.50 452.57 L1386.50 454.18 L1395.16 454.18 L1395.16 455.29 L1403.82 455.29 L1403.82 456.90 L1412.36 456.90 L1412.36 458.51 L1421.02 458.51 L1421.02 459.00 L1429.56 459.00 L1429.56 460.12 L1438.22 460.12 L1438.22 461.11 L1446.76 461.11 L1446.76 462.22 L1455.42 462.22 L1455.42 463.33 L1463.96 463.33 L1463.96 465.93 L1472.63 465.93 L1472.63 467.05 L1481.16 467.05 L1481.16 469.15 L1489.83 469.15 L1489.83 470.76 L1498.37 470.76 L1498.37 471.25 L1507.03 471.25 L1507.03 471.87 L1515.57 471.87 L1515.57 472.37 L1524.23 472.37 L1524.23 473.48 L1532.77 473.48 L1532.77 474.47 L1541.43 474.47 L1541.43 474.97 L1549.97 474.97 L1549.97 476.08 L1558.63 476.08 L1558.63 477.19 L1567.29 477.19 L1567.29 480.41 L1575.83 480.41 L1575.83 481.40 L1584.50 481.40 L1584.50 484.13 L1593.03 484.13 L1593.03 485.24 L1601.70 485.24 L1601.70 486.23 L1610.24 486.23 L1610.24 488.95 L1618.90 488.95 L1618.90 490.56 L1627.44 490.56 L1627.44 492.17 L1636.10 492.17 L1636.10 495.39 L1644.64 495.39 L1644.64 496.38 L1653.30 496.38 L1653.30 497.99 L1661.84 497.99 L1661.84 499.10 L1679.04 499.10 L1679.04 499.59 L1687.70 499.59 L1687.70 500.09 L1696.24 500.09 L1696.24 503.31 L1713.44 503.31 L1713.44 504.42 L1722.11 504.42 L1722.11 507.64 L1730.77 507.64 L1730.77 508.63 L1739.31 508.63 L1739.31 510.86 L1747.97 510.86 L1747.97 511.35 L1756.51 511.35 L1756.51 511.85 L1765.17 511.85 L1765.17 512.46 L1773.71 512.46 L1773.71 512.96 L1782.37 512.96 L1782.37 515.68 L1799.57 515.68 L1799.57 516.18 L1808.11 516.18 L1808.11 517.79 L1833.98 517.79 L1833.98 519.89 L1842.51 519.89 L1842.51 521.50 L1851.18 521.50 L1851.18 522.61 L1859.72 522.61 L1859.72 525.83 L1868.38 525.83 L1868.38 527.93 L1877.04 527.93 L1877.04 529.05 L1885.58 529.05 L1885.58 529.54 L1894.24 529.54 L1894.24 531.65 L1902.78 531.65 L1902.78 532.14 L1911.44 532.14 L1911.44 532.76 L1919.98 532.76 L1919.98 534.86 L1928.64 534.86 L1928.64 535.98 L1945.85 535.98 L1945.85 536.47 L1954.38 536.47 L1954.38 538.08 L1963.05 538.08 L1963.05 539.69 L1971.59 539.69 L1971.59 540.19 L1988.79 540.19 L1988.79 540.80 L1997.45 540.80 L1997.45 542.29 L2005.99 542.29 L2005.99 543.90 L2014.65 543.90 L2014.65 544.52 L2031.85 544.52 L2031.85 546.13 L2040.51 546.13 L2040.51 548.72 L2049.05 548.72 L2049.05 549.84 L2057.72 549.84 L2057.72 550.33 L2074.92 550.33 L2074.92 551.45 L2083.46 551.45 L2083.46 552.56 L2092.12 552.56 L2092.12 555.16 L2100.66 555.16 L2100.66 555.65 L2109.32 555.65 L2109.32 557.26 L2117.86 557.26 L2117.86 557.88 L2126.52 557.88 L2126.52 558.38 L2135.06 558.38 L2135.06 558.87 L2143.72 558.87 L2143.72 561.10 L2152.26 561.10 L2152.26 562.09 L2160.92 562.09 L2160.92 563.20 L2178.12 563.20 L2178.12 564.19 L2186.66 564.19 L2186.66 564.81 L2195.32 564.81 L2195.32 566.92 L2203.99 566.92 L2203.99 568.03 L2221.19 568.03 L2221.19 569.02 L2229.73 569.02 L2229.73 570.13 L2264.13 570.13 L2264.13 570.63 L2272.79 570.63 L2272.79 571.74 L2281.33 571.74 L2281.33 574.47 L2289.99 574.47 L2289.99 574.96 L2307.20 574.96 L2307.20 576.57 L2315.73 576.57 L2315.73 577.56 L2324.40 577.56 L2324.40 579.17 L2332.94 579.17 L2332.94 581.40 L2341.60 581.40 L2341.60 582.39 L2350.14 582.39 L2350.14 583.00 L2358.80 583.00 L2358.80 585.11 L2367.46 585.11 L2367.46 586.22 L2376.00 586.22 L2376.00 587.21 L2384.66 587.21 L2384.66 588.33 L2393.20 588.33 L2393.20 589.93 L2401.86 589.93 L2401.86 590.92 L2410.40 590.92 L2410.40 593.65 L2419.07 593.65 L2419.07 595.26 L2427.60 595.26 L2427.60 596.86 L2436.27 596.86 L2436.27 597.36 L2444.80 597.36 L2444.80 598.47 L2453.47 598.47 L2453.47 598.97 L2462.01 598.97 L2462.01 601.07 L2470.67 601.07 L2470.67 602.68 L2479.21 602.68 L2479.21 605.40 L2487.87 605.40 L2487.87 607.01 L2496.41 607.01 L2496.41 608.13 L2505.07 608.13 L2505.07 609.61 L2513.61 609.61 L2513.61 611.84 L2522.27 611.84 L2522.27 612.33 L2530.94 612.33 L2530.94 613.94 L2539.47 613.94 L2539.47 616.05 L2548.14 616.05 L2548.14 617.66 L2556.68 617.66 L2556.68 619.88 L2565.34 619.88 L2565.34 622.48 L2573.88 622.48 L2573.88 625.70 L2591.08 625.70 L2591.08 626.19 L2599.74 626.19 L2599.74 626.81 L2608.28 626.81 L2608.28 627.31 L2616.94 627.31 L2616.94 628.92 L2625.48 628.92 L2625.48 629.41 L2634.14 629.41 L2634.14 630.53 L2642.68 630.53 L2642.68 632.13 L2659.88 632.13 L2659.88 632.63 L2668.55 632.63 L2668.55 633.12 L2677.21 633.12 L2677.21 634.24 L2685.75 634.24 L2685.75 635.35 L2694.41 635.35 L2694.41 636.34 L2702.95 636.34 L2702.95 638.57 L2711.61 638.57 L2711.61 641.17 L2720.15 641.17 L2720.15 641.79 L2728.81 641.79 L2728.81 644.88 L2737.35 644.88 L2737.35 647.60 L2746.01 647.60 L2746.01 649.21 L2754.55 649.21 L2754.55 649.71 L2763.21 649.71 L2763.21 652.43 L2771.75 652.43 L2771.75 654.53 L2780.42 654.53 L2780.42 655.03 L2788.95 655.03 L2788.95 657.26 L2797.62 657.26 L2797.62 658.87 L2806.16 658.87 L2806.16 660.97 L2814.82 660.97 L2814.82 663.07 L2823.36 663.07 L2823.36 665.30 L2832.02 665.30 L2832.02 666.29 L2840.68 666.29 L2840.68 667.40 L2849.22 667.40 L2849.22 667.90 L2857.88 667.90 L2857.88 668.39 L2866.42 668.39 L2866.42 670.62 L2875.08 670.62 L2875.08 672.23 L2883.62 672.23 L2883.62 674.33 L2900.82 674.33 L2900.82 677.55 L2909.49 677.55 L2909.49 679.66 L2918.03 679.66 L2918.03 680.77 L2935.23 680.77 L2935.23 682.87 L2943.89 682.87 L2943.89 684.48 L2952.43 684.48 L2952.43 685.60 L2961.09 685.60 L2961.09 687.70 L2969.63 687.70 L2969.63 688.20 L2978.29 688.20 L2978.29 689.93 L2986.83 689.93 L2986.83 691.54 L2995.49 691.54 L2995.49 693.76 L3004.16 693.76 L3004.16 694.88 L3012.69 694.88 L3012.69 697.23 L3021.36 697.23 L3021.36 698.96 L3029.90 698.96 L3029.90 698.96 L3038.56 698.96 L3038.56 698.96 L3047.10 698.96 L3047.10 701.44 L3055.76 701.44 L3055.76 703.29 L3064.30 703.29 L3064.30 704.53 L3072.96 704.53 L3072.96 705.15 L3081.50 705.15 L3081.50 708.49 L3090.16 708.49 L3090.16 708.49 L3098.70 708.49 L3098.70 709.85 L3107.36 709.85 L3107.36 710.47 L3115.90 710.47 L3115.90 711.21 L3124.56 711.21 L3124.56 712.70 L3133.10 712.70 L3133.10 713.44 L3141.77 713.44 L3141.77 714.93 L3150.30 714.93 L3150.30 714.93 L3158.97 714.93 L3158.97 715.67 L3167.63 715.67 L3167.63 717.28 L3176.17 717.28 L3176.17 717.28 L3184.83 717.28 L3184.83 719.01 L3193.37 719.01 L3193.37 719.01 L3202.03 719.01 L3202.03 723.34 L3210.57 723.34 L3210.57 727.80 L3219.23 727.80 L3219.23 728.79 L3227.77 728.79 L3227.77 728.79 L3236.43 728.79 L3236.43 732.62 L3244.97 732.62 L3244.97 732.62 L3253.64 732.62 L3253.64 734.73 L3262.17 734.73 L3262.17 736.83 L3270.84 736.83 L3270.84 737.94 L3279.38 737.94 L3279.38 742.40 L3288.04 742.40 L3288.04 744.63 L3296.58 744.63 L3296.58 748.22 L3305.24 748.22 L3305.24 748.22 L3313.78 748.22 L3313.78 748.22 L3322.44 748.22 L3322.44 748.22 L3331.10 748.22 L3331.10 749.58 L3339.64 749.58 L3339.64 750.94 L3348.30 750.94 L3348.30 750.94 L3356.84 750.94 L3356.84 750.94 L3365.51 750.94 L3365.51 750.94 L3374.04 750.94 L3374.04 750.94 L3382.71 750.94 L3382.71 756.26 L3391.25 756.26 L3391.25 758.12 L3399.91 758.12 L3399.91 758.12 L3408.45 758.12 L3408.45 762.08 L3417.11 762.08 L3417.11 764.18 L3425.65 764.18 L3425.65 768.64 L3434.31 768.64 L3434.31 768.64 L3442.85 768.64 L3442.85 768.64 L3451.51 768.64 L3451.51 768.64 L3460.05 768.64 L3460.05 771.48 L3468.71 771.48 L3468.71 774.70 L3477.38 774.70 L3477.38 774.70 L3485.91 774.70 L3485.91 774.70 L3494.58 774.70 L3494.58 774.70 L3503.12 774.70 L3503.12 780.02 L3511.78 780.02 L3511.78 786.70 L3520.32 786.70 L3520.32 786.70 L3528.98 786.70 L3528.98 786.70 L3537.52 786.70 L3537.52 796.48 L3546.18 796.48 L3546.18 810.96 L3554.72 810.96 L3554.72 810.96 L3563.38 810.96 L3563.38 810.96" stroke-linejoin="round" style="fill:none;stroke:#1A476F;stroke-width:8.64"/>
	<path d=" M354.05 338.84 L354.05 338.84 L354.05 338.84 L354.05 338.84 L354.05 338.84 L354.05 338.84 L354.05 338.84 L354.05 338.84 L354.05 338.84 L354.05 338.84 L354.05 338.84 L354.05 338.84 L354.05 338.84 L362.71 338.84 L362.71 339.09 L371.25 339.09 L371.25 339.83 L379.91 339.83 L379.91 340.45 L388.45 340.45 L388.45 340.82 L397.11 340.82 L397.11 341.56 L405.65 341.56 L405.65 342.18 L422.85 342.18 L422.85 343.54 L431.52 343.54 L431.52 344.90 L440.18 344.90 L440.18 345.27 L448.72 345.27 L448.72 346.63 L457.38 346.63 L457.38 347.01 L465.92 347.01 L465.92 347.62 L474.58 347.62 L474.58 348.74 L483.12 348.74 L483.12 350.10 L491.78 350.10 L491.78 352.08 L500.32 352.08 L500.32 353.81 L508.98 353.81 L508.98 355.17 L526.18 355.17 L526.18 355.92 L534.72 355.92 L534.72 357.52 L543.39 357.52 L543.39 357.90 L551.92 357.90 L551.92 358.64 L560.59 358.64 L560.59 359.63 L569.13 359.63 L569.13 360.37 L577.79 360.37 L577.79 360.99 L586.33 360.99 L586.33 363.09 L594.99 363.09 L594.99 364.08 L603.65 364.08 L603.65 364.70 L612.19 364.70 L612.19 366.44 L620.85 366.44 L620.85 368.17 L629.39 368.17 L629.39 368.91 L638.05 368.91 L638.05 370.27 L646.59 370.27 L646.59 371.88 L655.26 371.88 L655.26 373.61 L663.80 373.61 L663.80 375.72 L672.46 375.72 L672.46 376.71 L681.00 376.71 L681.00 377.45 L689.66 377.45 L689.66 378.81 L698.20 378.81 L698.20 379.06 L706.86 379.06 L706.86 380.17 L715.40 380.17 L715.40 383.27 L724.06 383.27 L724.06 385.25 L732.60 385.25 L732.60 386.24 L741.26 386.24 L741.26 387.35 L749.80 387.35 L749.80 389.33 L758.46 389.33 L758.46 390.32 L767.13 390.32 L767.13 391.06 L775.67 391.06 L775.67 392.42 L784.33 392.42 L784.33 393.78 L792.87 393.78 L792.87 395.15 L801.53 395.15 L801.53 396.14 L810.07 396.14 L810.07 397.50 L818.73 397.50 L818.73 398.98 L827.27 398.98 L827.27 400.34 L835.93 400.34 L835.93 400.96 L844.47 400.96 L844.47 402.70 L853.13 402.70 L853.13 404.06 L870.33 404.06 L870.33 405.42 L878.87 405.42 L878.87 407.52 L887.54 407.52 L887.54 409.13 L896.07 409.13 L896.07 411.23 L904.74 411.23 L904.74 412.60 L913.40 412.60 L913.40 412.97 L921.94 412.97 L921.94 414.95 L930.60 414.95 L930.60 415.69 L939.14 415.69 L939.14 417.05 L947.80 417.05 L947.80 419.77 L956.34 419.77 L956.34 420.39 L965.00 420.39 L965.00 422.50 L973.54 422.50 L973.54 423.49 L982.20 423.49 L982.20 424.23 L990.74 424.23 L990.74 425.96 L999.41 425.96 L999.41 427.94 L1007.94 427.94 L1007.94 430.42 L1016.61 430.42 L1016.61 432.02 L1025.15 432.02 L1025.15 434.75 L1033.81 434.75 L1033.81 435.49 L1042.35 435.49 L1042.35 437.22 L1051.01 437.22 L1051.01 437.84 L1059.55 437.84 L1059.55 439.57 L1068.21 439.57 L1068.21 441.31 L1076.87 441.31 L1076.87 441.93 L1085.41 441.93 L1085.41 443.66 L1094.07 443.66 L1094.07 444.40 L1102.61 444.40 L1102.61 446.38 L1111.28 446.38 L1111.28 448.11 L1119.81 448.11 L1119.81 448.86 L1128.48 448.86 L1128.48 450.84 L1137.02 450.84 L1137.02 451.58 L1145.68 451.58 L1145.68 453.93 L1154.22 453.93 L1154.22 455.66 L1162.88 455.66 L1162.88 456.65 L1171.42 456.65 L1171.42 457.02 L1180.08 457.02 L1180.08 458.01 L1188.62 458.01 L1188.62 459.37 L1197.28 459.37 L1197.28 460.49 L1205.82 460.49 L1205.82 463.21 L1214.48 463.21 L1214.48 463.46 L1223.02 463.46 L1223.02 465.56 L1231.68 465.56 L1231.68 465.93 L1240.35 465.93 L1240.35 467.29 L1248.89 467.29 L1248.89 468.66 L1257.55 468.66 L1257.55 469.65 L1266.09 469.65 L1266.09 470.64 L1274.75 470.64 L1274.75 471.38 L1283.29 471.38 L1283.29 471.75 L1291.95 471.75 L1291.95 472.74 L1300.49 472.74 L1300.49 474.10 L1309.15 474.10 L1309.15 475.83 L1317.69 475.83 L1317.69 476.82 L1326.35 476.82 L1326.35 478.56 L1334.89 478.56 L1334.89 480.29 L1343.55 480.29 L1343.55 480.91 L1352.09 480.91 L1352.09 481.65 L1360.76 481.65 L1360.76 483.38 L1369.29 483.38 L1369.29 484.37 L1377.96 484.37 L1377.96 485.36 L1386.50 485.36 L1386.50 488.09 L1395.16 488.09 L1395.16 488.83 L1403.82 488.83 L1403.82 490.81 L1412.36 490.81 L1412.36 492.17 L1421.02 492.17 L1421.02 493.90 L1429.56 493.90 L1429.56 495.63 L1438.22 495.63 L1438.22 497.00 L1446.76 497.00 L1446.76 497.99 L1455.42 497.99 L1455.42 499.72 L1463.96 499.72 L1463.96 502.81 L1472.63 502.81 L1472.63 503.18 L1481.16 503.18 L1481.16 504.92 L1489.83 504.92 L1489.83 506.52 L1498.37 506.52 L1498.37 507.64 L1507.03 507.64 L1507.03 509.99 L1515.57 509.99 L1515.57 511.72 L1524.23 511.72 L1524.23 515.06 L1532.77 515.06 L1532.77 516.18 L1541.43 516.18 L1541.43 517.17 L1549.97 517.17 L1549.97 520.26 L1558.63 520.26 L1558.63 521.99 L1567.29 521.99 L1567.29 523.60 L1575.83 523.60 L1575.83 524.96 L1584.50 524.96 L1584.50 526.33 L1593.03 526.33 L1593.03 529.79 L1601.70 529.79 L1601.70 530.16 L1610.24 530.16 L1610.24 532.88 L1618.90 532.88 L1618.90 533.50 L1627.44 533.50 L1627.44 534.25 L1636.10 534.25 L1636.10 534.62 L1644.64 534.62 L1644.64 535.98 L1653.30 535.98 L1653.30 537.96 L1661.84 537.96 L1661.84 539.69 L1670.50 539.69 L1670.50 540.68 L1679.04 540.68 L1679.04 542.04 L1687.70 542.04 L1687.70 543.77 L1696.24 543.77 L1696.24 546.25 L1704.90 546.25 L1704.90 547.61 L1713.44 547.61 L1713.44 550.70 L1722.11 550.70 L1722.11 552.07 L1730.77 552.07 L1730.77 553.06 L1747.97 553.06 L1747.97 553.43 L1756.51 553.43 L1756.51 554.42 L1765.17 554.42 L1765.17 557.76 L1773.71 557.76 L1773.71 559.49 L1782.37 559.49 L1782.37 560.23 L1790.91 560.23 L1790.91 562.21 L1799.57 562.21 L1799.57 562.96 L1808.11 562.96 L1808.11 564.32 L1816.77 564.32 L1816.77 564.94 L1825.31 564.94 L1825.31 567.41 L1833.98 567.41 L1833.98 568.03 L1842.51 568.03 L1842.51 568.77 L1851.18 568.77 L1851.18 571.50 L1859.72 571.50 L1859.72 574.22 L1868.38 574.22 L1868.38 577.31 L1877.04 577.31 L1877.04 579.66 L1885.58 579.66 L1885.58 581.02 L1894.24 581.02 L1894.24 583.13 L1902.78 583.13 L1902.78 583.75 L1911.44 583.75 L1911.44 585.48 L1919.98 585.48 L1919.98 586.84 L1928.64 586.84 L1928.64 588.94 L1937.18 588.94 L1937.18 589.93 L1945.85 589.93 L1945.85 590.92 L1954.38 590.92 L1954.38 592.29 L1963.05 592.29 L1963.05 594.02 L1971.59 594.02 L1971.59 594.76 L1980.25 594.76 L1980.25 595.75 L1988.79 595.75 L1988.79 597.11 L1997.45 597.11 L1997.45 597.85 L2005.99 597.85 L2005.99 599.22 L2014.65 599.22 L2014.65 600.58 L2023.19 600.58 L2023.19 603.30 L2031.85 603.30 L2031.85 604.29 L2040.51 604.29 L2040.51 605.65 L2049.05 605.65 L2049.05 607.38 L2057.72 607.38 L2057.72 607.76 L2066.25 607.76 L2066.25 609.36 L2074.92 609.36 L2074.92 611.84 L2092.12 611.84 L2092.12 612.46 L2100.66 612.46 L2100.66 613.20 L2109.32 613.20 L2109.32 614.93 L2117.86 614.93 L2117.86 615.55 L2126.52 615.55 L2126.52 616.29 L2135.06 616.29 L2135.06 618.65 L2143.72 618.65 L2143.72 620.75 L2152.26 620.75 L2152.26 623.10 L2160.92 623.10 L2160.92 623.47 L2169.46 623.47 L2169.46 625.08 L2178.12 625.08 L2178.12 626.57 L2186.66 626.57 L2186.66 627.93 L2195.32 627.93 L2195.32 629.54 L2203.99 629.54 L2203.99 630.90 L2212.53 630.90 L2212.53 633.62 L2221.19 633.62 L2221.19 635.10 L2229.73 635.10 L2229.73 635.72 L2238.39 635.72 L2238.39 637.08 L2246.93 637.08 L2246.93 638.45 L2255.59 638.45 L2255.59 640.80 L2264.13 640.80 L2264.13 643.27 L2272.79 643.27 L2272.79 645.01 L2281.33 645.01 L2281.33 645.62 L2289.99 645.62 L2289.99 647.73 L2298.53 647.73 L2298.53 648.35 L2307.20 648.35 L2307.20 649.09 L2315.73 649.09 L2315.73 649.71 L2324.40 649.71 L2324.40 651.07 L2332.94 651.07 L2332.94 652.18 L2341.60 652.18 L2341.60 654.53 L2350.14 654.53 L2350.14 656.27 L2358.80 656.27 L2358.80 659.36 L2367.46 659.36 L2367.46 660.72 L2376.00 660.72 L2376.00 661.34 L2384.66 661.34 L2384.66 663.07 L2393.20 663.07 L2393.20 664.43 L2401.86 664.43 L2401.86 665.42 L2410.40 665.42 L2410.40 667.53 L2419.07 667.53 L2419.07 669.26 L2427.60 669.26 L2427.60 669.51 L2436.27 669.51 L2436.27 670.87 L2444.80 670.87 L2444.80 671.98 L2453.47 671.98 L2453.47 673.34 L2462.01 673.34 L2462.01 673.96 L2470.67 673.96 L2470.67 675.32 L2479.21 675.32 L2479.21 676.44 L2487.87 676.44 L2487.87 678.42 L2496.41 678.42 L2496.41 680.89 L2505.07 680.89 L2505.07 682.87 L2513.61 682.87 L2513.61 683.62 L2522.27 683.62 L2522.27 684.61 L2530.94 684.61 L2530.94 685.97 L2539.47 685.97 L2539.47 688.69 L2548.14 688.69 L2548.14 689.68 L2556.68 689.68 L2556.68 691.04 L2565.34 691.04 L2565.34 693.15 L2573.88 693.15 L2573.88 694.88 L2582.54 694.88 L2582.54 695.87 L2591.08 695.87 L2591.08 697.60 L2599.74 697.60 L2599.74 698.22 L2608.28 698.22 L2608.28 699.95 L2616.94 699.95 L2616.94 700.94 L2625.48 700.94 L2625.48 701.31 L2642.68 701.31 L2642.68 703.05 L2651.34 703.05 L2651.34 703.79 L2659.88 703.79 L2659.88 705.15 L2668.55 705.15 L2668.55 705.77 L2677.21 705.77 L2677.21 708.12 L2685.75 708.12 L2685.75 708.86 L2694.41 708.86 L2694.41 711.96 L2702.95 711.96 L2702.95 712.95 L2711.61 712.95 L2711.61 715.05 L2720.15 715.05 L2720.15 716.04 L2728.81 716.04 L2728.81 717.40 L2737.35 717.40 L2737.35 718.39 L2746.01 718.39 L2746.01 719.75 L2754.55 719.75 L2754.55 721.11 L2763.21 721.11 L2763.21 722.23 L2771.75 722.23 L2771.75 723.84 L2780.42 723.84 L2780.42 726.31 L2788.95 726.31 L2788.95 727.67 L2797.62 727.67 L2797.62 729.65 L2806.16 729.65 L2806.16 731.76 L2814.82 731.76 L2814.82 733.49 L2823.36 733.49 L2823.36 734.11 L2832.02 734.11 L2832.02 734.85 L2840.68 734.85 L2840.68 737.57 L2849.22 737.57 L2849.22 740.67 L2857.88 740.67 L2857.88 741.66 L2866.42 741.66 L2866.42 743.39 L2875.08 743.39 L2875.08 746.11 L2883.62 746.11 L2883.62 746.73 L2892.29 746.73 L2892.29 748.83 L2900.82 748.83 L2900.82 750.20 L2909.49 750.20 L2909.49 751.19 L2918.03 751.19 L2918.03 753.66 L2926.69 753.66 L2926.69 754.28 L2935.23 754.28 L2935.23 757.37 L2943.89 757.37 L2943.89 758.73 L2952.43 758.73 L2952.43 761.46 L2961.09 761.46 L2961.09 763.93 L2969.63 763.93 L2969.63 765.29 L2978.29 765.29 L2978.29 767.40 L2986.83 767.40 L2986.83 769.87 L2995.49 769.87 L2995.49 772.35 L3004.16 772.35 L3004.16 773.09 L3012.69 773.09 L3012.69 775.32 L3021.36 775.32 L3021.36 775.32 L3029.90 775.32 L3029.90 776.93 L3038.56 776.93 L3038.56 778.41 L3047.10 778.41 L3047.10 779.65 L3055.76 779.65 L3055.76 781.13 L3064.30 781.13 L3064.30 782.00 L3072.96 782.00 L3072.96 782.37 L3081.50 782.37 L3081.50 784.10 L3090.16 784.10 L3090.16 785.34 L3098.70 785.34 L3098.70 786.21 L3107.36 786.21 L3107.36 787.57 L3115.90 787.57 L3115.90 789.43 L3124.56 789.43 L3124.56 793.14 L3133.10 793.14 L3133.10 793.63 L3141.77 793.63 L3141.77 795.98 L3150.30 795.98 L3150.30 797.96 L3158.97 797.96 L3158.97 800.94 L3167.63 800.94 L3167.63 803.04 L3176.17 803.04 L3176.17 804.15 L3184.83 804.15 L3184.83 805.76 L3193.37 805.76 L3193.37 806.88 L3202.03 806.88 L3202.03 807.37 L3210.57 807.37 L3210.57 809.72 L3219.23 809.72 L3219.23 810.34 L3227.77 810.34 L3227.77 811.58 L3236.43 811.58 L3236.43 812.20 L3244.97 812.20 L3244.97 812.82 L3253.64 812.82 L3253.64 814.18 L3262.17 814.18 L3262.17 814.80 L3270.84 814.80 L3270.84 818.38 L3279.38 818.38 L3279.38 821.23 L3288.04 821.23 L3288.04 821.23 L3296.58 821.23 L3296.58 821.97 L3305.24 821.97 L3305.24 822.72 L3313.78 822.72 L3313.78 826.06 L3322.44 826.06 L3322.44 829.52 L3331.10 829.52 L3331.10 831.25 L3339.64 831.25 L3339.64 832.12 L3348.30 832.12 L3348.30 834.10 L3356.84 834.10 L3356.84 834.10 L3365.51 834.10 L3365.51 834.10 L3374.04 834.10 L3374.04 836.20 L3382.71 836.20 L3382.71 837.32 L3391.25 837.32 L3391.25 842.02 L3399.91 842.02 L3399.91 842.02 L3408.45 842.02 L3408.45 845.86 L3417.11 845.86 L3417.11 845.86 L3425.65 845.86 L3425.65 848.70 L3434.31 848.70 L3434.31 850.31 L3442.85 850.31 L3442.85 853.53 L3451.51 853.53 L3451.51 853.53 L3460.05 853.53 L3460.05 853.53 L3468.71 853.53 L3468.71 853.53 L3477.38 853.53 L3477.38 853.53 L3485.91 853.53 L3485.91 853.53 L3494.58 853.53 L3494.58 853.53 L3503.12 853.53 L3503.12 853.53 L3511.78 853.53 L3511.78 853.53 L3520.32 853.53 L3520.32 853.53 L3528.98 853.53 L3528.98 853.53 L3537.52 853.53 L3537.52 853.53 L3546.18 853.53 L3546.18 853.53 L3554.72 853.53 L3554.72 853.53 L3563.38 853.53 L3563.38 853.53" stroke-linejoin="round" style="fill:none;stroke:#90353B;stroke-width:8.64"/>
	<path d=" M354.05 338.84 L354.05 338.84 L354.05 338.84 L354.05 338.84 L354.05 338.84 L354.05 338.84 L354.05 338.84 L354.05 338.84 L354.05 338.84 L354.05 338.84 L354.05 338.84 L354.05 338.84 L354.05 338.84 L362.71 338.84 L362.71 339.46 L371.25 339.46 L371.25 339.95 L379.91 339.95 L379.91 341.44 L388.45 341.44 L388.45 342.67 L397.11 342.67 L397.11 343.79 L405.65 343.79 L405.65 345.15 L414.32 345.15 L414.32 346.51 L422.85 346.51 L422.85 348.00 L431.52 348.00 L431.52 349.85 L440.18 349.85 L440.18 350.72 L448.72 350.72 L448.72 352.82 L457.38 352.82 L457.38 353.94 L465.92 353.94 L465.92 355.05 L474.58 355.05 L474.58 357.28 L483.12 357.28 L483.12 359.26 L491.78 359.26 L491.78 360.50 L500.32 360.50 L500.32 361.11 L508.98 361.11 L508.98 362.72 L517.52 362.72 L517.52 365.57 L526.18 365.57 L526.18 366.93 L534.72 366.93 L534.72 367.67 L543.39 367.67 L543.39 369.90 L551.92 369.90 L551.92 370.64 L560.59 370.64 L560.59 371.51 L569.13 371.51 L569.13 372.13 L577.79 372.13 L577.79 373.49 L586.33 373.49 L586.33 375.72 L594.99 375.72 L594.99 378.07 L603.65 378.07 L603.65 378.44 L612.19 378.44 L612.19 378.93 L620.85 378.93 L620.85 380.30 L629.39 380.30 L629.39 382.52 L638.05 382.52 L638.05 383.64 L646.59 383.64 L646.59 384.13 L655.26 384.13 L655.26 385.00 L663.80 385.00 L663.80 387.10 L672.46 387.10 L672.46 388.46 L681.00 388.46 L681.00 389.70 L689.66 389.70 L689.66 391.56 L698.20 391.56 L698.20 393.17 L706.86 393.17 L706.86 394.77 L715.40 394.77 L715.40 396.26 L724.06 396.26 L724.06 397.62 L732.60 397.62 L732.60 399.23 L741.26 399.23 L741.26 400.84 L749.80 400.84 L749.80 402.45 L758.46 402.45 L758.46 404.43 L767.13 404.43 L767.13 406.04 L775.67 406.04 L775.67 407.40 L784.33 407.40 L784.33 408.76 L792.87 408.76 L792.87 410.12 L801.53 410.12 L801.53 412.10 L810.07 412.10 L810.07 413.46 L818.73 413.46 L818.73 414.82 L827.27 414.82 L827.27 416.18 L835.93 416.18 L835.93 417.55 L844.47 417.55 L844.47 418.66 L853.13 418.66 L853.13 421.38 L861.67 421.38 L861.67 423.86 L870.33 423.86 L870.33 425.59 L878.87 425.59 L878.87 426.70 L887.54 426.70 L887.54 428.56 L896.07 428.56 L896.07 431.28 L904.74 431.28 L904.74 431.90 L913.40 431.90 L913.40 434.00 L921.94 434.00 L921.94 435.37 L930.60 435.37 L930.60 436.48 L939.14 436.48 L939.14 438.95 L947.80 438.95 L947.80 440.32 L956.34 440.32 L956.34 440.94 L965.00 440.94 L965.00 442.54 L973.54 442.54 L973.54 443.66 L982.20 443.66 L982.20 444.40 L990.74 444.40 L990.74 446.88 L999.41 446.88 L999.41 448.86 L1007.94 448.86 L1007.94 452.44 L1016.61 452.44 L1016.61 454.67 L1025.15 454.67 L1025.15 456.03 L1033.81 456.03 L1033.81 457.15 L1042.35 457.15 L1042.35 458.76 L1051.01 458.76 L1051.01 460.61 L1059.55 460.61 L1059.55 462.59 L1068.21 462.59 L1068.21 465.31 L1076.87 465.31 L1076.87 467.42 L1085.41 467.42 L1085.41 469.65 L1094.07 469.65 L1094.07 471.38 L1102.61 471.38 L1102.61 473.73 L1111.28 473.73 L1111.28 475.71 L1119.81 475.71 L1119.81 477.69 L1128.48 477.69 L1128.48 479.30 L1137.02 479.30 L1137.02 481.40 L1145.68 481.40 L1145.68 483.14 L1154.22 483.14 L1154.22 484.25 L1162.88 484.25 L1162.88 485.86 L1171.42 485.86 L1171.42 487.22 L1180.08 487.22 L1180.08 489.69 L1188.62 489.69 L1188.62 493.78 L1197.28 493.78 L1197.28 495.51 L1205.82 495.51 L1205.82 497.12 L1214.48 497.12 L1214.48 500.09 L1223.02 500.09 L1223.02 501.70 L1231.68 501.70 L1231.68 503.68 L1240.35 503.68 L1240.35 507.76 L1248.89 507.76 L1248.89 509.99 L1257.55 509.99 L1257.55 511.35 L1266.09 511.35 L1266.09 512.46 L1274.75 512.46 L1274.75 514.32 L1283.29 514.32 L1283.29 517.41 L1291.95 517.41 L1291.95 519.52 L1300.49 519.52 L1300.49 521.25 L1309.15 521.25 L1309.15 523.48 L1317.69 523.48 L1317.69 525.09 L1326.35 525.09 L1326.35 528.43 L1334.89 528.43 L1334.89 531.03 L1343.55 531.03 L1343.55 533.01 L1352.09 533.01 L1352.09 534.62 L1360.76 534.62 L1360.76 536.35 L1369.29 536.35 L1369.29 538.21 L1377.96 538.21 L1377.96 540.43 L1386.50 540.43 L1386.50 542.91 L1395.16 542.91 L1395.16 544.27 L1403.82 544.27 L1403.82 545.38 L1412.36 545.38 L1412.36 546.50 L1421.02 546.50 L1421.02 548.60 L1429.56 548.60 L1429.56 550.33 L1438.22 550.33 L1438.22 553.55 L1446.76 553.55 L1446.76 554.42 L1455.42 554.42 L1455.42 557.39 L1463.96 557.39 L1463.96 559.37 L1472.63 559.37 L1472.63 561.84 L1481.16 561.84 L1481.16 563.70 L1489.83 563.70 L1489.83 566.17 L1498.37 566.17 L1498.37 567.91 L1507.03 567.91 L1507.03 570.63 L1515.57 570.63 L1515.57 572.49 L1524.23 572.49 L1524.23 574.96 L1532.77 574.96 L1532.77 576.07 L1541.43 576.07 L1541.43 577.68 L1549.97 577.68 L1549.97 579.42 L1558.63 579.42 L1558.63 582.39 L1567.29 582.39 L1567.29 583.75 L1575.83 583.75 L1575.83 586.22 L1584.50 586.22 L1584.50 587.58 L1593.03 587.58 L1593.03 591.17 L1601.70 591.17 L1601.70 593.03 L1610.24 593.03 L1610.24 594.64 L1618.90 594.64 L1618.90 596.62 L1627.44 596.62 L1627.44 598.84 L1636.10 598.84 L1636.10 601.57 L1644.64 601.57 L1644.64 602.68 L1653.30 602.68 L1653.30 603.80 L1661.84 603.80 L1661.84 604.04 L1670.50 604.04 L1670.50 605.90 L1679.04 605.90 L1679.04 607.01 L1687.70 607.01 L1687.70 609.86 L1696.24 609.86 L1696.24 611.47 L1704.90 611.47 L1704.90 612.83 L1713.44 612.83 L1713.44 614.93 L1722.11 614.93 L1722.11 616.91 L1730.77 616.91 L1730.77 618.77 L1739.31 618.77 L1739.31 619.64 L1747.97 619.64 L1747.97 621.00 L1756.51 621.00 L1756.51 623.22 L1765.17 623.22 L1765.17 624.09 L1773.71 624.09 L1773.71 625.45 L1782.37 625.45 L1782.37 627.56 L1790.91 627.56 L1790.91 629.78 L1799.57 629.78 L1799.57 631.39 L1808.11 631.39 L1808.11 632.88 L1816.77 632.88 L1816.77 633.87 L1825.31 633.87 L1825.31 635.85 L1833.98 635.85 L1833.98 636.71 L1842.51 636.71 L1842.51 638.82 L1851.18 638.82 L1851.18 640.80 L1859.72 640.80 L1859.72 643.03 L1868.38 643.03 L1868.38 644.88 L1877.04 644.88 L1877.04 647.11 L1885.58 647.11 L1885.58 649.21 L1894.24 649.21 L1894.24 650.70 L1902.78 650.70 L1902.78 653.42 L1911.44 653.42 L1911.44 655.90 L1919.98 655.90 L1919.98 657.26 L1928.64 657.26 L1928.64 659.36 L1937.18 659.36 L1937.18 661.59 L1945.85 661.59 L1945.85 662.70 L1954.38 662.70 L1954.38 664.31 L1963.05 664.31 L1963.05 667.40 L1971.59 667.40 L1971.59 669.26 L1980.25 669.26 L1980.25 670.87 L1988.79 670.87 L1988.79 672.23 L1997.45 672.23 L1997.45 674.71 L2005.99 674.71 L2005.99 676.44 L2014.65 676.44 L2014.65 677.80 L2023.19 677.80 L2023.19 679.90 L2031.85 679.90 L2031.85 681.14 L2040.51 681.14 L2040.51 682.50 L2049.05 682.50 L2049.05 683.25 L2057.72 683.25 L2057.72 684.85 L2066.25 684.85 L2066.25 685.72 L2074.92 685.72 L2074.92 689.06 L2083.46 689.06 L2083.46 690.67 L2092.12 690.67 L2092.12 692.65 L2100.66 692.65 L2100.66 693.15 L2109.32 693.15 L2109.32 694.01 L2117.86 694.01 L2117.86 695.87 L2126.52 695.87 L2126.52 697.23 L2135.06 697.23 L2135.06 698.59 L2143.72 698.59 L2143.72 699.95 L2152.26 699.95 L2152.26 701.07 L2160.92 701.07 L2160.92 703.05 L2169.46 703.05 L2169.46 704.16 L2178.12 704.16 L2178.12 706.26 L2186.66 706.26 L2186.66 708.24 L2195.32 708.24 L2195.32 709.36 L2203.99 709.36 L2203.99 711.46 L2212.53 711.46 L2212.53 713.44 L2221.19 713.44 L2221.19 715.05 L2229.73 715.05 L2229.73 715.54 L2238.39 715.54 L2238.39 717.03 L2246.93 717.03 L2246.93 717.28 L2255.59 717.28 L2255.59 718.39 L2264.13 718.39 L2264.13 720.25 L2272.79 720.25 L2272.79 722.23 L2281.33 722.23 L2281.33 723.34 L2289.99 723.34 L2289.99 725.20 L2298.53 725.20 L2298.53 727.67 L2307.20 727.67 L2307.20 729.03 L2315.73 729.03 L2315.73 729.65 L2324.40 729.65 L2324.40 731.26 L2332.94 731.26 L2332.94 732.87 L2341.60 732.87 L2341.60 734.23 L2350.14 734.23 L2350.14 736.21 L2358.80 736.21 L2358.80 737.08 L2367.46 737.08 L2367.46 738.32 L2376.00 738.32 L2376.00 738.69 L2384.66 738.69 L2384.66 740.30 L2393.20 740.30 L2393.20 741.66 L2401.86 741.66 L2401.86 744.13 L2410.40 744.13 L2410.40 745.99 L2419.07 745.99 L2419.07 747.72 L2427.60 747.72 L2427.60 750.20 L2436.27 750.20 L2436.27 750.94 L2444.80 750.94 L2444.80 752.92 L2453.47 752.92 L2453.47 754.90 L2462.01 754.90 L2462.01 756.26 L2470.67 756.26 L2470.67 757.25 L2479.21 757.25 L2479.21 758.73 L2487.87 758.73 L2487.87 760.59 L2496.41 760.59 L2496.41 761.46 L2505.07 761.46 L2505.07 764.43 L2513.61 764.43 L2513.61 765.17 L2522.27 765.17 L2522.27 767.15 L2530.94 767.15 L2530.94 769.38 L2539.47 769.38 L2539.47 770.49 L2548.14 770.49 L2548.14 770.99 L2556.68 770.99 L2556.68 772.72 L2565.34 772.72 L2565.34 774.58 L2573.88 774.58 L2573.88 775.94 L2582.54 775.94 L2582.54 777.55 L2591.08 777.55 L2591.08 779.53 L2599.74 779.53 L2599.74 781.75 L2608.28 781.75 L2608.28 783.11 L2616.94 783.11 L2616.94 784.48 L2625.48 784.48 L2625.48 785.84 L2634.14 785.84 L2634.14 788.31 L2642.68 788.31 L2642.68 789.30 L2651.34 789.30 L2651.34 790.54 L2659.88 790.54 L2659.88 792.64 L2668.55 792.64 L2668.55 794.25 L2677.21 794.25 L2677.21 795.37 L2685.75 795.37 L2685.75 795.98 L2694.41 795.98 L2694.41 798.21 L2702.95 798.21 L2702.95 799.45 L2711.61 799.45 L2711.61 800.56 L2720.15 800.56 L2720.15 802.05 L2728.81 802.05 L2728.81 803.66 L2737.35 803.66 L2737.35 805.51 L2746.01 805.51 L2746.01 807.49 L2754.55 807.49 L2754.55 809.72 L2763.21 809.72 L2763.21 812.07 L2771.75 812.07 L2771.75 813.81 L2780.42 813.81 L2780.42 814.80 L2788.95 814.80 L2788.95 815.17 L2797.62 815.17 L2797.62 815.66 L2806.16 815.66 L2806.16 817.02 L2814.82 817.02 L2814.82 819.00 L2823.36 819.00 L2823.36 819.50 L2832.02 819.50 L2832.02 821.23 L2840.68 821.23 L2840.68 822.84 L2849.22 822.84 L2849.22 823.71 L2857.88 823.71 L2857.88 825.07 L2866.42 825.07 L2866.42 827.17 L2875.08 827.17 L2875.08 828.28 L2883.62 828.28 L2883.62 828.90 L2892.29 828.90 L2892.29 829.89 L2900.82 829.89 L2900.82 831.01 L2909.49 831.01 L2909.49 832.74 L2918.03 832.74 L2918.03 834.10 L2926.69 834.10 L2926.69 836.20 L2935.23 836.20 L2935.23 837.57 L2943.89 837.57 L2943.89 839.05 L2952.43 839.05 L2952.43 841.16 L2961.09 841.16 L2961.09 842.76 L2969.63 842.76 L2969.63 844.13 L2978.29 844.13 L2978.29 846.23 L2986.83 846.23 L2986.83 847.84 L2995.49 847.84 L2995.49 850.31 L3004.16 850.31 L3004.16 851.67 L3012.69 851.67 L3012.69 852.91 L3021.36 852.91 L3021.36 855.02 L3029.90 855.02 L3029.90 857.00 L3038.56 857.00 L3038.56 858.85 L3047.10 858.85 L3047.10 860.96 L3055.76 860.96 L3055.76 862.19 L3064.30 862.19 L3064.30 864.17 L3072.96 864.17 L3072.96 866.28 L3081.50 866.28 L3081.50 867.64 L3090.16 867.64 L3090.16 868.88 L3098.70 868.88 L3098.70 870.24 L3107.36 870.24 L3107.36 871.72 L3115.90 871.72 L3115.90 872.96 L3124.56 872.96 L3124.56 874.20 L3133.10 874.20 L3133.10 877.91 L3141.77 877.91 L3141.77 880.51 L3150.30 880.51 L3150.30 881.87 L3158.97 881.87 L3158.97 882.24 L3167.63 882.24 L3167.63 882.86 L3176.17 882.86 L3176.17 884.35 L3184.83 884.35 L3184.83 884.72 L3193.37 884.72 L3193.37 886.20 L3202.03 886.20 L3202.03 887.32 L3210.57 887.32 L3210.57 888.06 L3219.23 888.06 L3219.23 889.67 L3227.77 889.67 L3227.77 891.77 L3236.43 891.77 L3236.43 894.37 L3244.97 894.37 L3244.97 895.61 L3253.64 895.61 L3253.64 897.96 L3262.17 897.96 L3262.17 900.31 L3270.84 900.31 L3270.84 902.66 L3279.38 902.66 L3279.38 905.51 L3288.04 905.51 L3288.04 906.00 L3296.58 906.00 L3296.58 906.62 L3305.24 906.62 L3305.24 910.33 L3313.78 910.33 L3313.78 911.94 L3322.44 911.94 L3322.44 912.56 L3331.10 912.56 L3331.10 913.80 L3339.64 913.80 L3339.64 913.80 L3348.30 913.80 L3348.30 914.42 L3356.84 914.42 L3356.84 915.16 L3365.51 915.16 L3365.51 918.01 L3374.04 918.01 L3374.04 918.75 L3382.71 918.75 L3382.71 919.61 L3391.25 919.61 L3391.25 919.61 L3399.91 919.61 L3399.91 920.48 L3408.45 920.48 L3408.45 925.43 L3417.11 925.43 L3417.11 930.63 L3425.65 930.63 L3425.65 930.63 L3434.31 930.63 L3434.31 932.86 L3442.85 932.86 L3442.85 935.46 L3451.51 935.46 L3451.51 935.46 L3460.05 935.46 L3460.05 939.79 L3468.71 939.79 L3468.71 941.40 L3477.38 941.40 L3477.38 941.40 L3485.91 941.40 L3485.91 941.40 L3494.58 941.40 L3494.58 943.62 L3503.12 943.62 L3503.12 943.62 L3511.78 943.62 L3511.78 946.59 L3520.32 946.59 L3520.32 946.59 L3528.98 946.59 L3528.98 946.59 L3537.52 946.59 L3537.52 946.59 L3546.18 946.59 L3546.18 946.59 L3554.72 946.59 L3554.72 946.59 L3563.38 946.59 L3563.38 946.59" stroke-linejoin="round" style="fill:none;stroke:#55752F;stroke-width:8.64"/>
	<path d=" M354.05 338.84 L354.05 338.84 L354.05 338.84 L354.05 338.84 L354.05 338.84 L354.05 338.84 L354.05 338.84 L354.05 338.84 L354.05 338.84 L354.05 338.84 L354.05 338.84 L354.05 338.84 L354.05 338.84 L362.71 338.84 L362.71 341.19 L371.25 341.19 L371.25 345.27 L379.91 345.27 L379.91 345.77 L388.45 345.77 L388.45 347.38 L397.11 347.38 L397.11 348.61 L405.65 348.61 L405.65 351.83 L414.32 351.83 L414.32 353.81 L422.85 353.81 L422.85 356.29 L431.52 356.29 L431.52 358.39 L440.18 358.39 L440.18 361.24 L448.72 361.24 L448.72 364.46 L457.38 364.46 L457.38 367.30 L465.92 367.30 L465.92 368.54 L474.58 368.54 L474.58 371.01 L483.12 371.01 L483.12 373.49 L491.78 373.49 L491.78 374.73 L500.32 374.73 L500.32 377.08 L508.98 377.08 L508.98 378.81 L517.52 378.81 L517.52 381.16 L526.18 381.16 L526.18 383.27 L534.72 383.27 L534.72 385.25 L543.39 385.25 L543.39 387.72 L551.92 387.72 L551.92 390.57 L560.59 390.57 L560.59 395.52 L569.13 395.52 L569.13 399.97 L577.79 399.97 L577.79 403.69 L586.33 403.69 L586.33 406.90 L594.99 406.90 L594.99 409.38 L603.65 409.38 L603.65 412.22 L612.19 412.22 L612.19 414.20 L620.85 414.20 L620.85 417.05 L629.39 417.05 L629.39 419.53 L638.05 419.53 L638.05 422.00 L646.59 422.00 L646.59 426.46 L655.26 426.46 L655.26 428.93 L663.80 428.93 L663.80 433.39 L672.46 433.39 L672.46 437.47 L681.00 437.47 L681.00 441.55 L689.66 441.55 L689.66 443.16 L698.20 443.16 L698.20 447.74 L706.86 447.74 L706.86 450.09 L715.40 450.09 L715.40 452.57 L724.06 452.57 L724.06 457.02 L732.60 457.02 L732.60 458.63 L741.26 458.63 L741.26 460.74 L749.80 460.74 L749.80 463.58 L758.46 463.58 L758.46 465.69 L767.13 465.69 L767.13 468.90 L775.67 468.90 L775.67 471.75 L784.33 471.75 L784.33 476.20 L792.87 476.20 L792.87 479.05 L801.53 479.05 L801.53 481.53 L810.07 481.53 L810.07 484.00 L818.73 484.00 L818.73 488.09 L827.27 488.09 L827.27 490.56 L835.93 490.56 L835.93 494.15 L844.47 494.15 L844.47 497.86 L853.13 497.86 L853.13 499.47 L861.67 499.47 L861.67 501.57 L870.33 501.57 L870.33 505.16 L878.87 505.16 L878.87 507.27 L887.54 507.27 L887.54 509.62 L896.07 509.62 L896.07 515.43 L904.74 515.43 L904.74 516.55 L913.40 516.55 L913.40 520.26 L921.94 520.26 L921.94 523.97 L930.60 523.97 L930.60 525.58 L939.14 525.58 L939.14 527.56 L947.80 527.56 L947.80 530.90 L956.34 530.90 L956.34 535.73 L965.00 535.73 L965.00 536.97 L973.54 536.97 L973.54 538.21 L982.20 538.21 L982.20 540.68 L990.74 540.68 L990.74 543.90 L999.41 543.90 L999.41 547.98 L1007.94 547.98 L1007.94 551.69 L1016.61 551.69 L1016.61 552.93 L1025.15 552.93 L1025.15 556.52 L1033.81 556.52 L1033.81 559.00 L1042.35 559.00 L1042.35 561.47 L1051.01 561.47 L1051.01 564.69 L1059.55 564.69 L1059.55 567.16 L1068.21 567.16 L1068.21 572.86 L1076.87 572.86 L1076.87 579.42 L1085.41 579.42 L1085.41 582.26 L1094.07 582.26 L1094.07 585.11 L1102.61 585.11 L1102.61 587.58 L1111.28 587.58 L1111.28 590.43 L1119.81 590.43 L1119.81 594.51 L1128.48 594.51 L1128.48 596.12 L1137.02 596.12 L1137.02 598.97 L1145.68 598.97 L1145.68 601.82 L1154.22 601.82 L1154.22 603.05 L1162.88 603.05 L1162.88 605.53 L1171.42 605.53 L1171.42 609.61 L1180.08 609.61 L1180.08 611.22 L1188.62 611.22 L1188.62 612.83 L1197.28 612.83 L1197.28 614.07 L1205.82 614.07 L1205.82 617.41 L1214.48 617.41 L1214.48 619.76 L1223.02 619.76 L1223.02 621.00 L1231.68 621.00 L1231.68 623.47 L1240.35 623.47 L1240.35 625.95 L1248.89 625.95 L1248.89 630.77 L1257.55 630.77 L1257.55 634.11 L1266.09 634.11 L1266.09 636.96 L1274.75 636.96 L1274.75 639.44 L1283.29 639.44 L1283.29 642.28 L1291.95 642.28 L1291.95 645.13 L1300.49 645.13 L1300.49 649.21 L1309.15 649.21 L1309.15 652.43 L1317.69 652.43 L1317.69 654.91 L1326.35 654.91 L1326.35 657.75 L1334.89 657.75 L1334.89 660.97 L1343.55 660.97 L1343.55 662.21 L1352.09 662.21 L1352.09 663.07 L1360.76 663.07 L1360.76 664.68 L1369.29 664.68 L1369.29 668.39 L1377.96 668.39 L1377.96 670.37 L1386.50 670.37 L1386.50 671.98 L1395.16 671.98 L1395.16 675.32 L1403.82 675.32 L1403.82 678.91 L1412.36 678.91 L1412.36 680.15 L1421.02 680.15 L1421.02 684.24 L1429.56 684.24 L1429.56 685.84 L1438.22 685.84 L1438.22 689.19 L1446.76 689.19 L1446.76 692.77 L1455.42 692.77 L1455.42 695.25 L1463.96 695.25 L1463.96 697.72 L1472.63 697.72 L1472.63 703.05 L1481.16 703.05 L1481.16 707.13 L1489.83 707.13 L1489.83 709.11 L1498.37 709.11 L1498.37 711.21 L1507.03 711.21 L1507.03 713.19 L1515.57 713.19 L1515.57 716.41 L1524.23 716.41 L1524.23 718.51 L1532.77 718.51 L1532.77 721.73 L1541.43 721.73 L1541.43 724.21 L1549.97 724.21 L1549.97 726.31 L1558.63 726.31 L1558.63 727.05 L1567.29 727.05 L1567.29 728.66 L1575.83 728.66 L1575.83 731.14 L1584.50 731.14 L1584.50 733.24 L1593.03 733.24 L1593.03 735.22 L1601.70 735.22 L1601.70 737.33 L1610.24 737.33 L1610.24 740.54 L1618.90 740.54 L1618.90 743.02 L1627.44 743.02 L1627.44 745.00 L1636.10 745.00 L1636.10 747.84 L1644.64 747.84 L1644.64 749.95 L1653.30 749.95 L1653.30 752.30 L1661.84 752.30 L1661.84 754.77 L1670.50 754.77 L1670.50 756.38 L1679.04 756.38 L1679.04 758.49 L1687.70 758.49 L1687.70 760.47 L1696.24 760.47 L1696.24 762.94 L1704.90 762.94 L1704.90 766.28 L1713.44 766.28 L1713.44 767.89 L1722.11 767.89 L1722.11 771.11 L1730.77 771.11 L1730.77 773.21 L1739.31 773.21 L1739.31 775.19 L1747.97 775.19 L1747.97 779.28 L1756.51 779.28 L1756.51 781.26 L1765.17 781.26 L1765.17 782.99 L1773.71 782.99 L1773.71 785.84 L1782.37 785.84 L1782.37 787.07 L1790.91 787.07 L1790.91 789.43 L1799.57 789.43 L1799.57 792.27 L1808.11 792.27 L1808.11 794.75 L1816.77 794.75 L1816.77 797.59 L1825.31 797.59 L1825.31 801.31 L1833.98 801.31 L1833.98 803.29 L1842.51 803.29 L1842.51 805.76 L1851.18 805.76 L1851.18 808.61 L1859.72 808.61 L1859.72 809.85 L1868.38 809.85 L1868.38 811.95 L1877.04 811.95 L1877.04 813.56 L1885.58 813.56 L1885.58 816.40 L1894.24 816.40 L1894.24 818.01 L1902.78 818.01 L1902.78 819.62 L1911.44 819.62 L1911.44 821.73 L1919.98 821.73 L1919.98 824.94 L1928.64 824.94 L1928.64 826.55 L1937.18 826.55 L1937.18 827.42 L1945.85 827.42 L1945.85 829.03 L1954.38 829.03 L1954.38 830.64 L1963.05 830.64 L1963.05 834.72 L1971.59 834.72 L1971.59 837.57 L1980.25 837.57 L1980.25 839.67 L1988.79 839.67 L1988.79 842.15 L1997.45 842.15 L1997.45 843.75 L2005.99 843.75 L2005.99 846.97 L2014.65 846.97 L2014.65 847.84 L2023.19 847.84 L2023.19 849.45 L2031.85 849.45 L2031.85 851.92 L2040.51 851.92 L2040.51 852.29 L2049.05 852.29 L2049.05 853.53 L2057.72 853.53 L2057.72 855.14 L2066.25 855.14 L2066.25 857.12 L2074.92 857.12 L2074.92 860.09 L2083.46 860.09 L2083.46 862.07 L2092.12 862.07 L2092.12 864.92 L2100.66 864.92 L2100.66 867.02 L2109.32 867.02 L2109.32 868.13 L2117.86 868.13 L2117.86 871.47 L2126.52 871.47 L2126.52 873.45 L2135.06 873.45 L2135.06 875.93 L2143.72 875.93 L2143.72 876.30 L2152.26 876.30 L2152.26 880.01 L2160.92 880.01 L2160.92 883.23 L2169.46 883.23 L2169.46 885.71 L2178.12 885.71 L2178.12 889.05 L2186.66 889.05 L2186.66 891.89 L2195.32 891.89 L2195.32 894.25 L2203.99 894.25 L2203.99 896.72 L2212.53 896.72 L2212.53 900.06 L2221.19 900.06 L2221.19 901.18 L2229.73 901.18 L2229.73 902.41 L2238.39 902.41 L2238.39 904.89 L2246.93 904.89 L2246.93 906.50 L2255.59 906.50 L2255.59 907.36 L2264.13 907.36 L2264.13 910.58 L2272.79 910.58 L2272.79 912.68 L2281.33 912.68 L2281.33 915.04 L2289.99 915.04 L2289.99 915.90 L2298.53 915.90 L2298.53 917.51 L2307.20 917.51 L2307.20 920.85 L2315.73 920.85 L2315.73 922.46 L2324.40 922.46 L2324.40 923.70 L2332.94 923.70 L2332.94 924.94 L2341.60 924.94 L2341.60 926.92 L2350.14 926.92 L2350.14 929.02 L2358.80 929.02 L2358.80 929.39 L2367.46 929.39 L2367.46 931.37 L2376.00 931.37 L2376.00 934.22 L2384.66 934.22 L2384.66 936.32 L2393.20 936.32 L2393.20 938.80 L2401.86 938.80 L2401.86 942.01 L2410.40 942.01 L2410.40 943.62 L2419.07 943.62 L2419.07 946.10 L2427.60 946.10 L2427.60 947.71 L2436.27 947.71 L2436.27 948.94 L2444.80 948.94 L2444.80 953.03 L2453.47 953.03 L2453.47 954.27 L2462.01 954.27 L2462.01 957.11 L2470.67 957.11 L2470.67 959.59 L2479.21 959.59 L2479.21 962.81 L2487.87 962.81 L2487.87 964.41 L2496.41 964.41 L2496.41 966.52 L2505.07 966.52 L2505.07 967.76 L2513.61 967.76 L2513.61 970.11 L2522.27 970.11 L2522.27 972.21 L2530.94 972.21 L2530.94 972.95 L2539.47 972.95 L2539.47 975.06 L2548.14 975.06 L2548.14 978.27 L2556.68 978.27 L2556.68 980.38 L2565.34 980.38 L2565.34 981.99 L2573.88 981.99 L2573.88 983.60 L2582.54 983.60 L2582.54 985.70 L2591.08 985.70 L2591.08 987.31 L2599.74 987.31 L2599.74 988.05 L2608.28 988.05 L2608.28 989.29 L2616.94 989.29 L2616.94 991.39 L2625.48 991.39 L2625.48 993.37 L2634.14 993.37 L2634.14 995.48 L2642.68 995.48 L2642.68 996.71 L2651.34 996.71 L2651.34 997.95 L2659.88 997.95 L2659.88 999.56 L2668.55 999.56 L2668.55 1000.80 L2677.21 1000.80 L2677.21 1001.91 L2685.75 1001.91 L2685.75 1002.41 L2694.41 1002.41 L2694.41 1004.39 L2702.95 1004.39 L2702.95 1006.00 L2711.61 1006.00 L2711.61 1008.84 L2720.15 1008.84 L2720.15 1009.71 L2728.81 1009.71 L2728.81 1011.81 L2737.35 1011.81 L2737.35 1012.55 L2746.01 1012.55 L2746.01 1013.42 L2754.55 1013.42 L2754.55 1016.27 L2763.21 1016.27 L2763.21 1018.25 L2771.75 1018.25 L2771.75 1019.11 L2780.42 1019.11 L2780.42 1020.35 L2788.95 1020.35 L2788.95 1021.96 L2797.62 1021.96 L2797.62 1022.83 L2806.16 1022.83 L2806.16 1024.43 L2814.82 1024.43 L2814.82 1026.04 L2823.36 1026.04 L2823.36 1028.52 L2832.02 1028.52 L2832.02 1031.36 L2840.68 1031.36 L2840.68 1031.74 L2849.22 1031.74 L2849.22 1032.60 L2857.88 1032.60 L2857.88 1037.06 L2866.42 1037.06 L2866.42 1037.80 L2875.08 1037.80 L2875.08 1040.28 L2883.62 1040.28 L2883.62 1041.88 L2892.29 1041.88 L2892.29 1044.36 L2900.82 1044.36 L2900.82 1047.21 L2909.49 1047.21 L2909.49 1048.81 L2918.03 1048.81 L2918.03 1050.05 L2926.69 1050.05 L2926.69 1052.53 L2935.23 1052.53 L2935.23 1055.00 L2943.89 1055.00 L2943.89 1056.61 L2952.43 1056.61 L2952.43 1058.22 L2961.09 1058.22 L2961.09 1059.09 L2969.63 1059.09 L2969.63 1060.82 L2978.29 1060.82 L2978.29 1062.06 L2986.83 1062.06 L2986.83 1064.65 L2995.49 1064.65 L2995.49 1068.24 L3004.16 1068.24 L3004.16 1069.11 L3012.69 1069.11 L3012.69 1071.83 L3021.36 1071.83 L3021.36 1073.69 L3029.90 1073.69 L3029.90 1075.17 L3038.56 1075.17 L3038.56 1077.52 L3047.10 1077.52 L3047.10 1078.02 L3055.76 1078.02 L3055.76 1080.99 L3064.30 1080.99 L3064.30 1084.46 L3072.96 1084.46 L3072.96 1086.93 L3081.50 1086.93 L3081.50 1088.42 L3090.16 1088.42 L3090.16 1090.02 L3098.70 1090.02 L3098.70 1091.51 L3107.36 1091.51 L3107.36 1092.13 L3115.90 1092.13 L3115.90 1092.62 L3124.56 1092.62 L3124.56 1093.86 L3133.10 1093.86 L3133.10 1094.48 L3141.77 1094.48 L3141.77 1095.59 L3150.30 1095.59 L3150.30 1096.83 L3158.97 1096.83 L3158.97 1096.83 L3167.63 1096.83 L3167.63 1098.07 L3176.17 1098.07 L3176.17 1098.81 L3184.83 1098.81 L3184.83 1101.41 L3193.37 1101.41 L3193.37 1102.03 L3202.03 1102.03 L3202.03 1102.03 L3210.57 1102.03 L3210.57 1102.77 L3219.23 1102.77 L3219.23 1102.77 L3227.77 1102.77 L3227.77 1104.87 L3236.43 1104.87 L3236.43 1106.36 L3244.97 1106.36 L3244.97 1107.84 L3253.64 1107.84 L3253.64 1107.84 L3262.17 1107.84 L3262.17 1110.32 L3270.84 1110.32 L3270.84 1112.79 L3279.38 1112.79 L3279.38 1112.79 L3288.04 1112.79 L3288.04 1115.39 L3296.58 1115.39 L3296.58 1115.39 L3305.24 1115.39 L3305.24 1116.38 L3313.78 1116.38 L3313.78 1118.36 L3322.44 1118.36 L3322.44 1123.31 L3331.10 1123.31 L3331.10 1125.42 L3339.64 1125.42 L3339.64 1127.65 L3348.30 1127.65 L3348.30 1128.64 L3356.84 1128.64 L3356.84 1129.87 L3365.51 1129.87 L3365.51 1133.59 L3374.04 1133.59 L3374.04 1134.82 L3382.71 1134.82 L3382.71 1136.31 L3391.25 1136.31 L3391.25 1139.28 L3399.91 1139.28 L3399.91 1142.62 L3408.45 1142.62 L3408.45 1144.48 L3417.11 1144.48 L3417.11 1150.54 L3425.65 1150.54 L3425.65 1150.54 L3434.31 1150.54 L3434.31 1150.54 L3442.85 1150.54 L3442.85 1150.54 L3451.51 1150.54 L3451.51 1153.14 L3460.05 1153.14 L3460.05 1153.14 L3468.71 1153.14 L3468.71 1153.14 L3477.38 1153.14 L3477.38 1156.73 L3485.91 1156.73 L3485.91 1160.81 L3494.58 1160.81 L3494.58 1160.81 L3503.12 1160.81 L3503.12 1171.21 L3511.78 1171.21 L3511.78 1171.21 L3520.32 1171.21 L3520.32 1171.21 L3528.98 1171.21 L3528.98 1171.21 L3537.52 1171.21 L3537.52 1171.21 L3546.18 1171.21 L3546.18 1171.21 L3554.72 1171.21 L3554.72 1171.21 L3563.38 1171.21 L3563.38 1171.21" stroke-linejoin="round" style="fill:none;stroke:#E37E00;stroke-width:8.64"/>
	<path d=" M354.05 338.84 L354.05 338.84 L354.05 338.84 L354.05 338.84 L354.05 338.84 L354.05 338.84 L354.05 338.84 L354.05 338.84 L354.05 338.84 L354.05 338.84 L354.05 338.84 L354.05 338.84 L354.05 338.84 L362.71 338.84 L362.71 342.43 L371.25 342.43 L371.25 349.60 L379.91 349.60 L379.91 353.19 L388.45 353.19 L388.45 365.82 L397.11 365.82 L397.11 380.30 L405.65 380.30 L405.65 392.92 L414.32 392.92 L414.32 394.77 L422.85 394.77 L422.85 396.51 L431.52 396.51 L431.52 401.95 L440.18 401.95 L440.18 407.40 L448.72 407.40 L448.72 412.84 L457.38 412.84 L457.38 421.88 L465.92 421.88 L465.92 427.20 L474.58 427.20 L474.58 430.79 L483.12 430.79 L483.12 439.82 L491.78 439.82 L491.78 454.30 L500.32 454.30 L500.32 461.48 L508.98 461.48 L508.98 470.51 L517.52 470.51 L517.52 472.37 L526.18 472.37 L526.18 477.81 L534.72 477.81 L534.72 481.40 L543.39 481.40 L543.39 490.44 L551.92 490.44 L551.92 495.88 L560.59 495.88 L560.59 501.20 L569.13 501.20 L569.13 508.50 L577.79 508.50 L577.79 513.83 L586.33 513.83 L586.33 519.27 L594.99 519.27 L594.99 528.31 L603.65 528.31 L603.65 535.48 L612.19 535.48 L612.19 542.78 L620.85 542.78 L620.85 551.82 L629.39 551.82 L629.39 562.59 L638.05 562.59 L638.05 568.03 L646.59 568.03 L646.59 573.48 L655.26 573.48 L655.26 578.92 L663.80 578.92 L663.80 587.83 L672.46 587.83 L672.46 591.54 L681.00 591.54 L681.00 600.58 L689.66 600.58 L689.66 607.76 L706.86 607.76 L706.86 616.79 L715.40 616.79 L715.40 620.38 L724.06 620.38 L724.06 625.82 L732.60 625.82 L732.60 631.27 L741.26 631.27 L741.26 636.59 L749.80 636.59 L749.80 645.62 L758.46 645.62 L758.46 652.93 L767.13 652.93 L767.13 654.66 L775.67 654.66 L775.67 656.51 L784.33 656.51 L784.33 661.96 L792.87 661.96 L792.87 665.55 L801.53 665.55 L801.53 670.87 L810.07 670.87 L810.07 674.58 L818.73 674.58 L818.73 679.90 L827.27 679.90 L827.27 687.21 L835.93 687.21 L835.93 692.53 L844.47 692.53 L844.47 705.27 L853.13 705.27 L853.13 707.01 L861.67 707.01 L861.67 708.86 L870.33 708.86 L870.33 712.45 L878.87 712.45 L878.87 716.04 L887.54 716.04 L887.54 717.90 L896.07 717.90 L896.07 726.93 L904.74 726.93 L904.74 728.66 L913.40 728.66 L913.40 737.70 L921.94 737.70 L921.94 739.55 L930.60 739.55 L930.60 745.00 L939.14 745.00 L939.14 748.59 L947.80 748.59 L947.80 753.91 L956.34 753.91 L956.34 755.76 L965.00 755.76 L965.00 764.80 L973.54 764.80 L973.54 766.66 L982.20 766.66 L982.20 768.39 L990.74 768.39 L990.74 775.57 L999.41 775.57 L999.41 777.42 L1007.94 777.42 L1007.94 782.87 L1016.61 782.87 L1016.61 784.60 L1025.15 784.60 L1025.15 791.90 L1042.35 791.90 L1042.35 797.35 L1051.01 797.35 L1051.01 802.67 L1059.55 802.67 L1059.55 809.97 L1068.21 809.97 L1068.21 811.70 L1076.87 811.70 L1076.87 819.00 L1085.41 819.00 L1085.41 824.32 L1094.07 824.32 L1094.07 827.91 L1102.61 827.91 L1102.61 835.21 L1111.28 835.21 L1111.28 842.39 L1119.81 842.39 L1119.81 851.43 L1128.48 851.43 L1128.48 853.28 L1137.02 853.28 L1137.02 855.02 L1145.68 855.02 L1145.68 858.60 L1154.22 858.60 L1154.22 860.46 L1162.88 860.46 L1162.88 867.64 L1171.42 867.64 L1171.42 873.08 L1180.08 873.08 L1180.08 874.94 L1188.62 874.94 L1188.62 876.67 L1197.28 876.67 L1197.28 878.53 L1205.82 878.53 L1205.82 880.26 L1214.48 880.26 L1214.48 883.97 L1223.02 883.97 L1223.02 887.56 L1231.68 887.56 L1231.68 893.01 L1240.35 893.01 L1240.35 900.19 L1248.89 900.19 L1248.89 905.63 L1257.55 905.63 L1257.55 909.22 L1266.09 909.22 L1266.09 914.66 L1274.75 914.66 L1274.75 918.25 L1283.29 918.25 L1283.29 927.29 L1291.95 927.29 L1291.95 932.73 L1300.49 932.73 L1300.49 934.47 L1309.15 934.47 L1309.15 945.36 L1317.69 945.36 L1317.69 947.09 L1326.35 947.09 L1326.35 950.68 L1334.89 950.68 L1334.89 952.53 L1343.55 952.53 L1343.55 957.98 L1352.09 957.98 L1352.09 961.57 L1360.76 961.57 L1360.76 976.05 L1377.96 976.05 L1377.96 979.64 L1395.16 979.64 L1395.16 981.37 L1403.82 981.37 L1403.82 983.22 L1412.36 983.22 L1412.36 992.26 L1421.02 992.26 L1421.02 995.85 L1429.56 995.85 L1429.56 999.44 L1438.22 999.44 L1438.22 1003.03 L1446.76 1003.03 L1446.76 1004.88 L1455.42 1004.88 L1455.42 1006.74 L1463.96 1006.74 L1463.96 1010.33 L1472.63 1010.33 L1472.63 1013.92 L1481.16 1013.92 L1481.16 1015.65 L1489.83 1015.65 L1489.83 1021.09 L1498.37 1021.09 L1498.37 1022.95 L1507.03 1022.95 L1507.03 1026.54 L1515.57 1026.54 L1515.57 1031.98 L1524.23 1031.98 L1524.23 1035.57 L1532.77 1035.57 L1532.77 1037.43 L1541.43 1037.43 L1541.43 1044.61 L1549.97 1044.61 L1549.97 1048.20 L1558.63 1048.20 L1558.63 1050.05 L1575.83 1050.05 L1575.83 1057.23 L1584.50 1057.23 L1584.50 1059.09 L1593.03 1059.09 L1593.03 1062.67 L1601.70 1062.67 L1601.70 1068.00 L1610.24 1068.00 L1610.24 1069.85 L1618.90 1069.85 L1618.90 1078.89 L1627.44 1078.89 L1627.44 1087.92 L1636.10 1087.92 L1636.10 1089.78 L1644.64 1089.78 L1644.64 1091.51 L1661.84 1091.51 L1661.84 1096.95 L1670.50 1096.95 L1670.50 1100.54 L1679.04 1100.54 L1679.04 1107.72 L1687.70 1107.72 L1687.70 1113.17 L1696.24 1113.17 L1696.24 1116.75 L1713.44 1116.75 L1713.44 1124.06 L1722.11 1124.06 L1722.11 1125.79 L1730.77 1125.79 L1730.77 1127.65 L1739.31 1127.65 L1739.31 1134.82 L1756.51 1134.82 L1756.51 1136.68 L1765.17 1136.68 L1765.17 1140.27 L1773.71 1140.27 L1773.71 1142.12 L1782.37 1142.12 L1782.37 1143.86 L1790.91 1143.86 L1790.91 1145.71 L1799.57 1145.71 L1799.57 1147.45 L1808.11 1147.45 L1808.11 1154.75 L1816.77 1154.75 L1816.77 1160.07 L1825.31 1160.07 L1825.31 1161.93 L1833.98 1161.93 L1833.98 1165.51 L1842.51 1165.51 L1842.51 1169.10 L1851.18 1169.10 L1851.18 1170.96 L1859.72 1170.96 L1859.72 1172.82 L1877.04 1172.82 L1877.04 1174.55 L1894.24 1174.55 L1894.24 1176.40 L1902.78 1176.40 L1902.78 1179.99 L1911.44 1179.99 L1911.44 1183.58 L1919.98 1183.58 L1919.98 1185.44 L1928.64 1185.44 L1928.64 1187.17 L1945.85 1187.17 L1945.85 1189.03 L1954.38 1189.03 L1954.38 1190.76 L1971.59 1190.76 L1971.59 1192.62 L1980.25 1192.62 L1980.25 1194.47 L1988.79 1194.47 L1988.79 1196.20 L2014.65 1196.20 L2014.65 1198.06 L2031.85 1198.06 L2031.85 1201.65 L2040.51 1201.65 L2040.51 1210.68 L2057.72 1210.68 L2057.72 1212.42 L2066.25 1212.42 L2066.25 1216.13 L2074.92 1216.13 L2074.92 1219.72 L2100.66 1219.72 L2100.66 1221.45 L2109.32 1221.45 L2109.32 1223.31 L2117.86 1223.31 L2117.86 1225.16 L2126.52 1225.16 L2126.52 1232.34 L2135.06 1232.34 L2135.06 1234.07 L2143.72 1234.07 L2143.72 1235.93 L2152.26 1235.93 L2152.26 1237.79 L2160.92 1237.79 L2160.92 1239.52 L2169.46 1239.52 L2169.46 1244.96 L2178.12 1244.96 L2178.12 1246.82 L2195.32 1246.82 L2195.32 1248.55 L2203.99 1248.55 L2203.99 1250.41 L2229.73 1250.41 L2229.73 1254.00 L2238.39 1254.00 L2238.39 1255.73 L2246.93 1255.73 L2246.93 1257.59 L2255.59 1257.59 L2255.59 1261.18 L2264.13 1261.18 L2264.13 1263.03 L2272.79 1263.03 L2272.79 1264.76 L2281.33 1264.76 L2281.33 1266.62 L2289.99 1266.62 L2289.99 1268.48 L2307.20 1268.48 L2307.20 1270.21 L2315.73 1270.21 L2315.73 1273.80 L2324.40 1273.80 L2324.40 1277.51 L2350.14 1277.51 L2350.14 1279.24 L2358.80 1279.24 L2358.80 1281.10 L2367.46 1281.10 L2367.46 1286.42 L2376.00 1286.42 L2376.00 1288.28 L2393.20 1288.28 L2393.20 1290.13 L2410.40 1290.13 L2410.40 1293.72 L2427.60 1293.72 L2427.60 1295.46 L2436.27 1295.46 L2436.27 1297.31 L2453.47 1297.31 L2453.47 1299.17 L2462.01 1299.17 L2462.01 1300.90 L2470.67 1300.90 L2470.67 1302.76 L2479.21 1302.76 L2479.21 1308.20 L2487.87 1308.20 L2487.87 1309.93 L2496.41 1309.93 L2496.41 1311.79 L2505.07 1311.79 L2505.07 1313.52 L2539.47 1313.52 L2539.47 1315.38 L2548.14 1315.38 L2548.14 1317.11 L2556.68 1317.11 L2556.68 1320.83 L2565.34 1320.83 L2565.34 1324.41 L2591.08 1324.41 L2591.08 1328.00 L2599.74 1328.00 L2599.74 1329.86 L2608.28 1329.86 L2608.28 1331.59 L2616.94 1331.59 L2616.94 1333.45 L2625.48 1333.45 L2625.48 1335.18 L2634.14 1335.18 L2634.14 1337.04 L2651.34 1337.04 L2651.34 1338.77 L2668.55 1338.77 L2668.55 1342.48 L2685.75 1342.48 L2685.75 1344.21 L2694.41 1344.21 L2694.41 1346.07 L2702.95 1346.07 L2702.95 1349.66 L2711.61 1349.66 L2711.61 1355.10 L2737.35 1355.10 L2737.35 1356.84 L2746.01 1356.84 L2746.01 1358.69 L2754.55 1358.69 L2754.55 1360.55 L2763.21 1360.55 L2763.21 1362.28 L2771.75 1362.28 L2771.75 1365.87 L2780.42 1365.87 L2780.42 1367.73 L2797.62 1367.73 L2797.62 1369.46 L2806.16 1369.46 L2806.16 1373.17 L2823.36 1373.17 L2823.36 1376.76 L2832.02 1376.76 L2832.02 1383.94 L2840.68 1383.94 L2840.68 1387.53 L2849.22 1387.53 L2849.22 1389.38 L2857.88 1389.38 L2857.88 1391.12 L2866.42 1391.12 L2866.42 1392.97 L2875.08 1392.97 L2875.08 1394.83 L2892.29 1394.83 L2892.29 1396.56 L2909.49 1396.56 L2909.49 1398.42 L2926.69 1398.42 L2926.69 1402.01 L2943.89 1402.01 L2943.89 1403.86 L2952.43 1403.86 L2952.43 1403.86 L2961.09 1403.86 L2961.09 1407.45 L2969.63 1407.45 L2969.63 1411.17 L2978.29 1411.17 L2978.29 1411.17 L2986.83 1411.17 L2986.83 1411.17 L2995.49 1411.17 L2995.49 1411.17 L3004.16 1411.17 L3004.16 1411.17 L3012.69 1411.17 L3012.69 1411.17 L3021.36 1411.17 L3021.36 1415.13 L3029.90 1415.13 L3029.90 1417.11 L3047.10 1417.11 L3047.10 1419.21 L3055.76 1419.21 L3055.76 1421.19 L3064.30 1421.19 L3064.30 1421.19 L3072.96 1421.19 L3072.96 1425.52 L3081.50 1425.52 L3081.50 1429.98 L3090.16 1429.98 L3090.16 1429.98 L3098.70 1429.98 L3098.70 1429.98 L3107.36 1429.98 L3107.36 1432.33 L3115.90 1432.33 L3115.90 1432.33 L3124.56 1432.33 L3124.56 1432.33 L3133.10 1432.33 L3133.10 1434.80 L3141.77 1434.80 L3141.77 1437.28 L3150.30 1437.28 L3150.30 1437.28 L3158.97 1437.28 L3158.97 1439.88 L3167.63 1439.88 L3167.63 1439.88 L3176.17 1439.88 L3176.17 1439.88 L3193.37 1439.88 L3193.37 1439.88 L3210.57 1439.88 L3210.57 1439.88 L3219.23 1439.88 L3219.23 1439.88 L3227.77 1439.88 L3227.77 1446.31 L3236.43 1446.31 L3236.43 1449.65 L3253.64 1449.65 L3253.64 1449.65 L3262.17 1449.65 L3262.17 1449.65 L3270.84 1449.65 L3270.84 1449.65 L3279.38 1449.65 L3279.38 1449.65 L3288.04 1449.65 L3288.04 1449.65 L3296.58 1449.65 L3296.58 1453.61 L3305.24 1453.61 L3305.24 1453.61 L3313.78 1453.61 L3313.78 1453.61 L3322.44 1453.61 L3322.44 1457.94 L3331.10 1457.94 L3331.10 1462.52 L3339.64 1462.52 L3339.64 1467.23 L3348.30 1467.23 L3348.30 1467.23 L3356.84 1467.23 L3356.84 1467.23 L3365.51 1467.23 L3365.51 1467.23 L3391.25 1467.23 L3391.25 1467.23 L3399.91 1467.23 L3399.91 1467.23 L3408.45 1467.23 L3408.45 1477.00 L3417.11 1477.00 L3417.11 1487.15 L3425.65 1487.15 L3425.65 1487.15 L3434.31 1487.15 L3434.31 1487.15 L3442.85 1487.15 L3442.85 1487.15 L3451.51 1487.15 L3451.51 1487.15 L3460.05 1487.15 L3460.05 1507.45 L3468.71 1507.45 L3468.71 1507.45 L3477.38 1507.45 L3477.38 1507.45 L3494.58 1507.45 L3494.58 1507.45 L3503.12 1507.45 L3503.12 1507.45 L3511.78 1507.45 L3511.78 1507.45 L3528.98 1507.45 L3528.98 1507.45 L3537.52 1507.45 L3537.52 1507.45 L3546.18 1507.45 L3546.18 1507.45 L3554.72 1507.45 L3554.72 1507.45" stroke-linejoin="round" style="fill:none;stroke:#6E8E84;stroke-width:8.64"/>
	<path d=" M354.05 338.84 L354.05 338.84 L354.05 338.84 L354.05 338.84 L354.05 338.84 L354.05 338.84 L354.05 338.84 L354.05 338.84 L354.05 338.84 L354.05 338.84 L354.05 338.84 L354.05 338.84 L354.05 338.84 L1300.49 338.84 L1300.49 809.35 L1558.63 809.35 L1558.63 1279.86 L3365.51 1279.86 L3365.51 1279.86" stroke-linejoin="round" style="fill:none;stroke:#C10534;stroke-width:8.64"/>
	<path d=" M354.05 338.84 L354.05 338.84 L354.05 338.84 L354.05 338.84 L354.05 338.84 L354.05 338.84 L354.05 338.84 L354.05 338.84 L354.05 338.84 L354.05 338.84 L354.05 338.84 L354.05 338.84 L354.05 338.84 L818.73 338.84 L818.73 621.12 L939.14 621.12 L939.14 903.40 L1283.29 903.40 L1283.29 1185.81 L1438.22 1185.81 L1438.22 1468.09 L2651.34 1468.09 L2651.34 1750.37" stroke-linejoin="round" style="fill:none;stroke:#938DD2;stroke-width:8.64"/>
	<line x1="290.81" y1="1813.74" x2="290.81" y2="275.35" style="stroke:#000000;stroke-width:5.76"/>
	<line x1="290.81" y1="1750.37" x2="250.84" y2="1750.37" style="stroke:#000000;stroke-width:5.76"/>
	<text x="200.73" y="1750.37" style="font-family:'Helvetica';font-size:99.99px;fill:#000000" transform="rotate(-90 200.73,1750.37)" text-anchor="middle">0.00</text>
	<line x1="290.81" y1="1397.43" x2="250.84" y2="1397.43" style="stroke:#000000;stroke-width:5.76"/>
	<text x="200.73" y="1397.43" style="font-family:'Helvetica';font-size:99.99px;fill:#000000" transform="rotate(-90 200.73,1397.43)" text-anchor="middle">0.25</text>
	<line x1="290.81" y1="1044.48" x2="250.84" y2="1044.48" style="stroke:#000000;stroke-width:5.76"/>
	<text x="200.73" y="1044.48" style="font-family:'Helvetica';font-size:99.99px;fill:#000000" transform="rotate(-90 200.73,1044.48)" text-anchor="middle">0.50</text>
	<line x1="290.81" y1="691.66" x2="250.84" y2="691.66" style="stroke:#000000;stroke-width:5.76"/>
	<text x="200.73" y="691.66" style="font-family:'Helvetica';font-size:99.99px;fill:#000000" transform="rotate(-90 200.73,691.66)" text-anchor="middle">0.75</text>
	<line x1="290.81" y1="338.71" x2="250.84" y2="338.71" style="stroke:#000000;stroke-width:5.76"/>
	<text x="200.73" y="338.71" style="font-family:'Helvetica';font-size:99.99px;fill:#000000" transform="rotate(-90 200.73,338.71)" text-anchor="middle">1.00</text>
	<line x1="290.81" y1="1813.74" x2="3859.02" y2="1813.74" style="stroke:#000000;stroke-width:5.76"/>
	<line x1="354.17" y1="1813.74" x2="354.17" y2="1853.71" style="stroke:#000000;stroke-width:5.76"/>
	<text x="354.17" y="1943.57" style="font-family:'Helvetica';font-size:99.99px;fill:#000000" text-anchor="middle">0</text>
	<line x1="1214.48" y1="1813.74" x2="1214.48" y2="1853.71" style="stroke:#000000;stroke-width:5.76"/>
	<text x="1214.48" y="1943.57" style="font-family:'Helvetica';font-size:99.99px;fill:#000000" text-anchor="middle">100</text>
	<line x1="2074.92" y1="1813.74" x2="2074.92" y2="1853.71" style="stroke:#000000;stroke-width:5.76"/>
	<text x="2074.92" y="1943.57" style="font-family:'Helvetica';font-size:99.99px;fill:#000000" text-anchor="middle">200</text>
	<line x1="2935.35" y1="1813.74" x2="2935.35" y2="1853.71" style="stroke:#000000;stroke-width:5.76"/>
	<text x="2935.35" y="1943.57" style="font-family:'Helvetica';font-size:99.99px;fill:#000000" text-anchor="middle">300</text>
	<line x1="3795.66" y1="1813.74" x2="3795.66" y2="1853.71" style="stroke:#000000;stroke-width:5.76"/>
	<text x="3795.66" y="1943.57" style="font-family:'Helvetica';font-size:99.99px;fill:#000000" text-anchor="middle">400</text>
	<text x="2074.92" y="2053.58" style="font-family:'Helvetica';font-size:99.99px;fill:#000000" text-anchor="middle">Analysis time</text>
	<rect x="1115.73" y="2138.22" width="1918.37" height="606.39" style="fill:#FFFFFF"/>
	<rect x="1118.61" y="2141.10" width="1912.61" height="600.63" style="fill:none;stroke:#000000;stroke-width:5.76"/>
	<line x1="1158.92" y1="2231.41" x2="1533.26" y2="2231.41" style="stroke:#1A476F;stroke-width:8.64"/>
	<line x1="2144.96" y1="2231.41" x2="2519.30" y2="2231.41" style="stroke:#90353B;stroke-width:8.64"/>
	<line x1="1158.92" y1="2371.50" x2="1533.26" y2="2371.50" style="stroke:#55752F;stroke-width:8.64"/>
	<line x1="2144.96" y1="2371.50" x2="2519.30" y2="2371.50" style="stroke:#E37E00;stroke-width:8.64"/>
	<line x1="1158.92" y1="2511.46" x2="1533.26" y2="2511.46" style="stroke:#6E8E84;stroke-width:8.64"/>
	<line x1="2144.96" y1="2511.46" x2="2519.30" y2="2511.46" style="stroke:#C10534;stroke-width:8.64"/>
	<line x1="1158.92" y1="2651.43" x2="1533.26" y2="2651.43" style="stroke:#938DD2;stroke-width:8.64"/>
	<text x="1593.28" y="2266.43" style="font-family:'Helvetica';font-size:99.99px;fill:#000000">hab1 = 1</text>
	<text x="2579.32" y="2266.43" style="font-family:'Helvetica';font-size:99.99px;fill:#000000">hab1 = 2</text>
	<text x="1593.28" y="2406.52" style="font-family:'Helvetica';font-size:99.99px;fill:#000000">hab1 = 3</text>
	<text x="2579.32" y="2406.52" style="font-family:'Helvetica';font-size:99.99px;fill:#000000">hab1 = 4</text>
	<text x="1593.28" y="2546.49" style="font-family:'Helvetica';font-size:99.99px;fill:#000000">hab1 = 5</text>
	<text x="2579.32" y="2546.49" style="font-family:'Helvetica';font-size:99.99px;fill:#000000">hab1 = 8</text>
	<text x="1593.28" y="2686.46" style="font-family:'Helvetica';font-size:99.99px;fill:#000000">hab1 = 9</text>
	<text x="2074.92" y="215.98" style="font-family:'Helvetica';font-size:139.96px;fill:#1E2D53" text-anchor="middle">Kaplan-Meier Estimates</text>
</svg>
