<?xml version="1.0" encoding="UTF-8" standalone="no"?>
<!-- This is a Stata 17.0 generated SVG file (http://www.stata.com) -->

<svg version="1.1" width="5.500in" height="4.000in" viewBox="0 0 3960 2880" xmlns="http://www.w3.org/2000/svg" xmlns:xlink="http://www.w3.org/1999/xlink">
	<desc>Stata Graph - Graph</desc>
	<rect x="0" y="0" width="3960" height="2880" style="fill:#EAF2F3;stroke:none"/>
	<rect x="0.00" y="0.00" width="3959.88" height="2880.00" style="fill:#EAF2F3"/>
	<rect x="2.88" y="2.88" width="3954.12" height="2874.24" style="fill:none;stroke:#EAF2F3;stroke-width:5.76"/>
	<rect x="430.16" y="419.90" width="3428.87" height="1954.82" style="fill:#FFFFFF"/>
	<rect x="433.03" y="422.78" width="3423.11" height="1949.06" style="fill:none;stroke:#FFFFFF;stroke-width:5.76"/>
	<line x1="430.16" y1="2311.35" x2="3859.02" y2="2311.35" style="stroke:#EAF2F3;stroke-width:8.64"/>
	<line x1="430.16" y1="1869.67" x2="3859.02" y2="1869.67" style="stroke:#EAF2F3;stroke-width:8.64"/>
	<line x1="430.16" y1="1428.00" x2="3859.02" y2="1428.00" style="stroke:#EAF2F3;stroke-width:8.64"/>
	<line x1="430.16" y1="986.44" x2="3859.02" y2="986.44" style="stroke:#EAF2F3;stroke-width:8.64"/>
	<line x1="430.16" y1="544.76" x2="3859.02" y2="544.76" style="stroke:#EAF2F3;stroke-width:8.64"/>
	<path d=" M493.39 2311.35 L493.39 2311.35 L493.39 2311.35 L493.39 2311.35 L493.39 2311.35 L493.39 2311.35 L493.39 2311.35 L493.39 2311.35 L493.39 2311.35 L528.78 2311.35 L528.78 2310.48 L546.48 2310.48 L546.48 2309.74 L555.39 2309.74 L555.39 2308.88 L573.09 2308.88 L573.09 2308.01 L581.87 2308.01 L581.87 2306.40 L590.78 2306.40 L590.78 2303.06 L608.48 2303.06 L608.48 2302.19 L617.39 2302.19 L617.39 2299.72 L635.09 2299.72 L635.09 2298.85 L643.87 2298.85 L643.87 2296.38 L652.78 2296.38 L652.78 2293.78 L661.57 2293.78 L661.57 2293.04 L679.26 2293.04 L679.26 2292.17 L688.17 2292.17 L688.17 2291.30 L697.08 2291.30 L697.08 2290.44 L705.87 2290.44 L705.87 2289.69 L714.78 2289.69 L714.78 2287.96 L732.48 2287.96 L732.48 2285.49 L741.26 2285.49 L741.26 2284.62 L767.87 2284.62 L767.87 2283.75 L776.66 2283.75 L776.66 2283.01 L785.57 2283.01 L785.57 2278.80 L794.35 2278.80 L794.35 2277.94 L803.26 2277.94 L803.26 2277.07 L838.65 2277.07 L838.65 2275.46 L847.56 2275.46 L847.56 2272.86 L856.35 2272.86 L856.35 2271.25 L865.26 2271.25 L865.26 2269.52 L874.05 2269.52 L874.05 2267.91 L882.96 2267.91 L882.96 2267.05 L891.74 2267.05 L891.74 2263.71 L900.65 2263.71 L900.65 2262.84 L909.56 2262.84 L909.56 2259.50 L918.35 2259.50 L918.35 2257.89 L927.26 2257.89 L927.26 2256.16 L944.96 2256.16 L944.96 2255.41 L953.74 2255.41 L953.74 2252.82 L962.65 2252.82 L962.65 2251.21 L971.44 2251.21 L971.44 2247.87 L980.35 2247.87 L980.35 2244.52 L989.13 2244.52 L989.13 2241.18 L1015.74 2241.18 L1015.74 2240.32 L1024.65 2240.32 L1024.65 2237.84 L1033.44 2237.84 L1033.44 2236.11 L1042.35 2236.11 L1042.35 2235.37 L1051.13 2235.37 L1051.13 2232.77 L1068.83 2232.77 L1068.83 2230.29 L1077.74 2230.29 L1077.74 2228.68 L1086.53 2228.68 L1086.53 2227.82 L1113.13 2227.82 L1113.13 2226.95 L1122.04 2226.95 L1122.04 2226.08 L1130.83 2226.08 L1130.83 2224.48 L1139.74 2224.48 L1139.74 2222.74 L1148.52 2222.74 L1148.52 2222.00 L1157.43 2222.00 L1157.43 2221.13 L1166.22 2221.13 L1166.22 2219.40 L1175.13 2219.40 L1175.13 2217.79 L1183.92 2217.79 L1183.92 2215.19 L1192.83 2215.19 L1192.83 2212.72 L1201.61 2212.72 L1201.61 2209.38 L1210.52 2209.38 L1210.52 2208.51 L1219.31 2208.51 L1219.31 2204.43 L1237.13 2204.43 L1237.13 2201.83 L1254.83 2201.83 L1254.83 2200.22 L1263.61 2200.22 L1263.61 2197.74 L1272.52 2197.74 L1272.52 2195.15 L1281.31 2195.15 L1281.31 2194.40 L1290.22 2194.40 L1290.22 2192.67 L1299.00 2192.67 L1299.00 2190.20 L1307.91 2190.20 L1307.91 2188.46 L1316.70 2188.46 L1316.70 2185.12 L1325.61 2185.12 L1325.61 2183.51 L1343.31 2183.51 L1343.31 2181.78 L1352.22 2181.78 L1352.22 2178.44 L1369.91 2178.44 L1369.91 2176.83 L1378.70 2176.83 L1378.70 2175.96 L1387.61 2175.96 L1387.61 2175.10 L1396.40 2175.10 L1396.40 2171.01 L1405.31 2171.01 L1405.31 2167.67 L1414.09 2167.67 L1414.09 2164.33 L1423.00 2164.33 L1423.00 2162.60 L1431.79 2162.60 L1431.79 2159.26 L1440.70 2159.26 L1440.70 2154.18 L1449.61 2154.18 L1449.61 2153.44 L1458.39 2153.44 L1458.39 2151.71 L1467.30 2151.71 L1467.30 2149.23 L1476.09 2149.23 L1476.09 2147.50 L1493.79 2147.50 L1493.79 2145.89 L1502.70 2145.89 L1502.70 2142.55 L1511.48 2142.55 L1511.48 2140.08 L1520.39 2140.08 L1520.39 2137.48 L1529.18 2137.48 L1529.18 2136.73 L1538.09 2136.73 L1538.09 2135.00 L1546.88 2135.00 L1546.88 2133.39 L1555.79 2133.39 L1555.79 2130.79 L1564.70 2130.79 L1564.70 2129.19 L1573.48 2129.19 L1573.48 2126.71 L1582.39 2126.71 L1582.39 2124.11 L1591.18 2124.11 L1591.18 2123.37 L1600.09 2123.37 L1600.09 2121.64 L1608.87 2121.64 L1608.87 2120.03 L1617.78 2120.03 L1617.78 2118.29 L1626.57 2118.29 L1626.57 2116.69 L1635.48 2116.69 L1635.48 2112.48 L1644.27 2112.48 L1644.27 2110.75 L1653.18 2110.75 L1653.18 2107.40 L1662.09 2107.40 L1662.09 2104.93 L1670.87 2104.93 L1670.87 2104.06 L1679.78 2104.06 L1679.78 2103.32 L1688.57 2103.32 L1688.57 2102.45 L1697.48 2102.45 L1697.48 2100.72 L1706.27 2100.72 L1706.27 2099.11 L1715.18 2099.11 L1715.18 2098.25 L1723.96 2098.25 L1723.96 2096.51 L1732.87 2096.51 L1732.87 2094.91 L1741.66 2094.91 L1741.66 2089.83 L1750.57 2089.83 L1750.57 2088.22 L1759.35 2088.22 L1759.35 2084.02 L1768.26 2084.02 L1768.26 2082.41 L1777.17 2082.41 L1777.17 2080.67 L1785.96 2080.67 L1785.96 2076.47 L1794.87 2076.47 L1794.87 2073.99 L1803.66 2073.99 L1803.66 2071.52 L1812.57 2071.52 L1812.57 2066.44 L1821.35 2066.44 L1821.35 2064.83 L1830.26 2064.83 L1830.26 2062.36 L1839.05 2062.36 L1839.05 2060.63 L1856.75 2060.63 L1856.75 2059.76 L1865.66 2059.76 L1865.66 2059.02 L1874.57 2059.02 L1874.57 2053.94 L1892.26 2053.94 L1892.26 2052.33 L1901.05 2052.33 L1901.05 2047.26 L1909.96 2047.26 L1909.96 2045.65 L1918.74 2045.65 L1918.74 2042.19 L1927.65 2042.19 L1927.65 2041.44 L1936.44 2041.44 L1936.44 2040.58 L1945.35 2040.58 L1945.35 2039.71 L1954.14 2039.71 L1954.14 2038.84 L1963.05 2038.84 L1963.05 2034.76 L1980.74 2034.76 L1980.74 2033.89 L1989.65 2033.89 L1989.65 2031.42 L2016.14 2031.42 L2016.14 2028.08 L2025.05 2028.08 L2025.05 2025.48 L2033.83 2025.48 L2033.83 2023.87 L2042.74 2023.87 L2042.74 2018.80 L2051.53 2018.80 L2051.53 2015.46 L2060.44 2015.46 L2060.44 2013.85 L2069.22 2013.85 L2069.22 2012.98 L2078.13 2012.98 L2078.13 2009.64 L2087.04 2009.64 L2087.04 2008.77 L2095.83 2008.77 L2095.83 2008.03 L2104.74 2008.03 L2104.74 2004.69 L2113.53 2004.69 L2113.53 2002.96 L2131.22 2002.96 L2131.22 2002.09 L2140.13 2002.09 L2140.13 1999.61 L2148.92 1999.61 L2148.92 1997.14 L2157.83 1997.14 L2157.83 1996.27 L2175.53 1996.27 L2175.53 1995.41 L2184.31 1995.41 L2184.31 1992.93 L2193.22 1992.93 L2193.22 1990.46 L2202.13 1990.46 L2202.13 1989.59 L2219.83 1989.59 L2219.83 1987.12 L2228.61 1987.12 L2228.61 1982.91 L2237.52 1982.91 L2237.52 1981.18 L2246.31 1981.18 L2246.31 1980.43 L2264.01 1980.43 L2264.01 1978.70 L2272.92 1978.70 L2272.92 1977.09 L2281.70 1977.09 L2281.70 1972.88 L2290.61 1972.88 L2290.61 1972.02 L2299.52 1972.02 L2299.52 1969.54 L2308.31 1969.54 L2308.31 1968.68 L2317.22 1968.68 L2317.22 1967.81 L2326.01 1967.81 L2326.01 1967.07 L2334.92 1967.07 L2334.92 1963.73 L2343.70 1963.73 L2343.70 1961.99 L2352.61 1961.99 L2352.61 1960.39 L2370.31 1960.39 L2370.31 1958.65 L2379.09 1958.65 L2379.09 1957.79 L2388.00 1957.79 L2388.00 1954.44 L2396.79 1954.44 L2396.79 1952.84 L2414.61 1952.84 L2414.61 1951.10 L2423.40 1951.10 L2423.40 1949.49 L2458.79 1949.49 L2458.79 1948.63 L2467.70 1948.63 L2467.70 1947.02 L2476.49 1947.02 L2476.49 1942.81 L2485.40 1942.81 L2485.40 1941.95 L2503.09 1941.95 L2503.09 1939.47 L2512.00 1939.47 L2512.00 1937.74 L2520.79 1937.74 L2520.79 1935.26 L2529.70 1935.26 L2529.70 1931.92 L2538.48 1931.92 L2538.48 1930.31 L2547.39 1930.31 L2547.39 1929.45 L2556.18 1929.45 L2556.18 1926.11 L2565.09 1926.11 L2565.09 1924.37 L2573.88 1924.37 L2573.88 1922.76 L2582.79 1922.76 L2582.79 1921.03 L2591.57 1921.03 L2591.57 1918.56 L2600.48 1918.56 L2600.48 1916.82 L2609.27 1916.82 L2609.27 1912.74 L2618.18 1912.74 L2618.18 1910.14 L2627.09 1910.14 L2627.09 1907.67 L2635.88 1907.67 L2635.88 1906.80 L2644.79 1906.80 L2644.79 1905.19 L2653.57 1905.19 L2653.57 1904.32 L2662.48 1904.32 L2662.48 1900.98 L2671.27 1900.98 L2671.27 1898.51 L2680.18 1898.51 L2680.18 1894.30 L2688.96 1894.30 L2688.96 1891.83 L2697.87 1891.83 L2697.87 1890.09 L2706.66 1890.09 L2706.66 1887.62 L2715.57 1887.62 L2715.57 1884.28 L2724.36 1884.28 L2724.36 1883.41 L2733.27 1883.41 L2733.27 1880.94 L2742.18 1880.94 L2742.18 1877.59 L2750.96 1877.59 L2750.96 1875.12 L2759.87 1875.12 L2759.87 1871.78 L2768.66 1871.78 L2768.66 1867.57 L2777.57 1867.57 L2777.57 1862.50 L2795.27 1862.50 L2795.27 1861.75 L2804.05 1861.75 L2804.05 1860.89 L2812.96 1860.89 L2812.96 1860.02 L2821.75 1860.02 L2821.75 1857.55 L2830.66 1857.55 L2830.66 1856.68 L2839.57 1856.68 L2839.57 1855.07 L2848.35 1855.07 L2848.35 1852.47 L2866.05 1852.47 L2866.05 1851.73 L2874.96 1851.73 L2874.96 1850.86 L2883.75 1850.86 L2883.75 1849.13 L2892.66 1849.13 L2892.66 1847.52 L2901.44 1847.52 L2901.44 1845.79 L2910.35 1845.79 L2910.35 1842.45 L2919.14 1842.45 L2919.14 1838.36 L2928.05 1838.36 L2928.05 1837.50 L2936.84 1837.50 L2936.84 1832.42 L2945.75 1832.42 L2945.75 1828.34 L2954.66 1828.34 L2954.66 1825.74 L2963.44 1825.74 L2963.44 1825.00 L2972.35 1825.00 L2972.35 1820.79 L2981.14 1820.79 L2981.14 1817.45 L2990.05 1817.45 L2990.05 1816.58 L2998.83 1816.58 L2998.83 1813.24 L3007.74 1813.24 L3007.74 1810.77 L3016.53 1810.77 L3016.53 1807.43 L3025.44 1807.43 L3025.44 1804.08 L3034.23 1804.08 L3034.23 1800.74 L3043.14 1800.74 L3043.14 1799.01 L3052.05 1799.01 L3052.05 1797.40 L3060.83 1797.40 L3060.83 1796.53 L3069.74 1796.53 L3069.74 1795.67 L3078.53 1795.67 L3078.53 1792.33 L3087.44 1792.33 L3087.44 1789.85 L3096.23 1789.85 L3096.23 1786.51 L3113.92 1786.51 L3113.92 1781.44 L3122.83 1781.44 L3122.83 1778.10 L3131.62 1778.10 L3131.62 1776.49 L3149.31 1776.49 L3149.31 1773.15 L3158.22 1773.15 L3158.22 1770.55 L3167.13 1770.55 L3167.13 1768.94 L3175.92 1768.94 L3175.92 1765.60 L3184.83 1765.60 L3184.83 1764.73 L3193.62 1764.73 L3193.62 1762.13 L3202.53 1762.13 L3202.53 1759.53 L3211.31 1759.53 L3211.31 1756.07 L3220.22 1756.07 L3220.22 1754.33 L3229.01 1754.33 L3229.01 1750.75 L3237.92 1750.75 L3237.92 1747.90 L3246.71 1747.90 L3246.71 1747.90 L3255.62 1747.90 L3255.62 1747.90 L3264.53 1747.90 L3264.53 1744.06 L3273.31 1744.06 L3273.31 1741.22 L3282.22 1741.22 L3282.22 1739.24 L3291.01 1739.24 L3291.01 1738.25 L3299.92 1738.25 L3299.92 1733.17 L3308.70 1733.17 L3308.70 1733.17 L3317.61 1733.17 L3317.61 1731.07 L3326.40 1731.07 L3326.40 1729.96 L3335.31 1729.96 L3335.31 1728.84 L3344.10 1728.84 L3344.10 1726.49 L3353.01 1726.49 L3353.01 1725.38 L3361.79 1725.38 L3361.79 1723.03 L3370.70 1723.03 L3370.70 1723.03 L3379.61 1723.03 L3379.61 1721.79 L3388.40 1721.79 L3388.40 1719.19 L3397.31 1719.19 L3397.31 1719.19 L3406.10 1719.19 L3406.10 1716.59 L3415.01 1716.59 L3415.01 1716.59 L3423.79 1716.59 L3423.79 1709.78 L3432.70 1709.78 L3432.70 1702.85 L3441.49 1702.85 L3441.49 1701.37 L3450.40 1701.37 L3450.40 1701.37 L3459.18 1701.37 L3459.18 1695.30 L3468.09 1695.30 L3468.09 1695.30 L3477.00 1695.30 L3477.00 1692.09 L3485.79 1692.09 L3485.79 1688.75 L3494.70 1688.75 L3494.70 1687.01 L3503.49 1687.01 L3503.49 1680.08 L3512.40 1680.08 L3512.40 1676.49 L3521.18 1676.49 L3521.18 1670.92 L3530.09 1670.92 L3530.09 1670.92 L3538.88 1670.92 L3538.88 1670.92 L3547.79 1670.92 L3547.79 1670.92 L3556.58 1670.92 L3556.58 1668.82 L3565.49 1668.82 L3565.49 1666.59 L3574.27 1666.59 L3574.27 1666.59 L3583.18 1666.59 L3583.18 1666.59 L3592.09 1666.59 L3592.09 1666.59 L3600.88 1666.59 L3600.88 1666.59 L3609.79 1666.59 L3609.79 1658.30 L3618.57 1658.30 L3618.57 1655.46 L3627.48 1655.46 L3627.48 1655.46 L3636.27 1655.46 L3636.27 1649.27 L3645.18 1649.27 L3645.18 1645.93 L3653.97 1645.93 L3653.97 1638.87 L3662.88 1638.87 L3662.88 1638.87 L3671.66 1638.87 L3671.66 1638.87 L3680.57 1638.87 L3680.57 1638.87 L3689.36 1638.87 L3689.36 1634.42 L3698.27 1634.42 L3698.27 1629.47 L3707.18 1629.47 L3707.18 1629.47 L3715.97 1629.47 L3715.97 1629.47 L3724.88 1629.47 L3724.88 1629.47 L3733.66 1629.47 L3733.66 1621.05 L3742.57 1621.05 L3742.57 1610.78 L3751.36 1610.78 L3751.36 1610.78 L3760.27 1610.78 L3760.27 1610.78 L3769.05 1610.78 L3769.05 1595.31 L3777.96 1595.31 L3777.96 1572.79 L3786.75 1572.79 L3786.75 1572.79 L3795.66 1572.79 L3795.66 1572.79" stroke-linejoin="round" style="fill:none;stroke:#1A476F;stroke-width:8.64"/>
	<path d=" M493.39 2311.35 L493.39 2311.35 L493.39 2311.35 L493.39 2311.35 L493.39 2311.35 L493.39 2311.35 L493.39 2311.35 L493.39 2311.35 L493.39 2311.35 L502.30 2311.35 L502.30 2310.86 L511.09 2310.86 L511.09 2309.74 L520.00 2309.74 L520.00 2308.75 L528.78 2308.75 L528.78 2308.13 L537.69 2308.13 L537.69 2307.14 L546.48 2307.14 L546.48 2306.03 L564.18 2306.03 L564.18 2303.93 L573.09 2303.93 L573.09 2301.70 L581.87 2301.70 L581.87 2301.20 L590.78 2301.20 L590.78 2299.10 L599.69 2299.10 L599.69 2298.60 L608.48 2298.60 L608.48 2297.49 L617.39 2297.49 L617.39 2295.88 L626.17 2295.88 L626.17 2293.78 L635.09 2293.78 L635.09 2290.56 L643.87 2290.56 L643.87 2287.84 L652.78 2287.84 L652.78 2285.73 L670.48 2285.73 L670.48 2284.62 L679.26 2284.62 L679.26 2282.02 L688.17 2282.02 L688.17 2281.40 L697.08 2281.40 L697.08 2280.41 L705.87 2280.41 L705.87 2278.80 L714.78 2278.80 L714.78 2277.69 L723.57 2277.69 L723.57 2276.58 L732.48 2276.58 L732.48 2273.36 L741.26 2273.36 L741.26 2271.87 L750.17 2271.87 L750.17 2270.76 L758.96 2270.76 L758.96 2268.04 L767.87 2268.04 L767.87 2265.44 L776.66 2265.44 L776.66 2264.32 L785.57 2264.32 L785.57 2262.22 L794.35 2262.22 L794.35 2259.50 L803.26 2259.50 L803.26 2256.90 L812.17 2256.90 L812.17 2253.68 L820.96 2253.68 L820.96 2252.07 L829.87 2252.07 L829.87 2250.96 L838.65 2250.96 L838.65 2248.86 L847.56 2248.86 L847.56 2248.24 L856.35 2248.24 L856.35 2246.75 L865.26 2246.75 L865.26 2241.93 L874.05 2241.93 L874.05 2238.71 L882.96 2238.71 L882.96 2237.10 L891.74 2237.10 L891.74 2235.49 L900.65 2235.49 L900.65 2232.27 L909.56 2232.27 L909.56 2230.66 L918.35 2230.66 L918.35 2229.55 L927.26 2229.55 L927.26 2227.45 L936.05 2227.45 L936.05 2225.34 L944.96 2225.34 L944.96 2223.11 L953.74 2223.11 L953.74 2221.63 L962.65 2221.63 L962.65 2219.40 L971.44 2219.40 L971.44 2217.30 L980.35 2217.30 L980.35 2215.19 L989.13 2215.19 L989.13 2214.08 L998.04 2214.08 L998.04 2211.36 L1006.83 2211.36 L1006.83 2209.25 L1024.65 2209.25 L1024.65 2207.15 L1033.44 2207.15 L1033.44 2203.93 L1042.35 2203.93 L1042.35 2201.21 L1051.13 2201.21 L1051.13 2197.99 L1060.04 2197.99 L1060.04 2195.89 L1068.83 2195.89 L1068.83 2195.39 L1077.74 2195.39 L1077.74 2192.18 L1086.53 2192.18 L1086.53 2191.06 L1095.44 2191.06 L1095.44 2188.96 L1104.22 2188.96 L1104.22 2184.63 L1113.13 2184.63 L1113.13 2183.64 L1122.04 2183.64 L1122.04 2180.42 L1130.83 2180.42 L1130.83 2178.81 L1139.74 2178.81 L1139.74 2177.70 L1148.52 2177.70 L1148.52 2175.10 L1157.43 2175.10 L1157.43 2171.88 L1166.22 2171.88 L1166.22 2168.17 L1175.13 2168.17 L1175.13 2165.45 L1183.92 2165.45 L1183.92 2161.11 L1192.83 2161.11 L1192.83 2160.12 L1201.61 2160.12 L1201.61 2157.40 L1210.52 2157.40 L1210.52 2156.41 L1219.31 2156.41 L1219.31 2153.69 L1228.22 2153.69 L1228.22 2150.97 L1237.13 2150.97 L1237.13 2149.98 L1245.92 2149.98 L1245.92 2147.25 L1254.83 2147.25 L1254.83 2146.14 L1263.61 2146.14 L1263.61 2143.05 L1272.52 2143.05 L1272.52 2140.32 L1281.31 2140.32 L1281.31 2139.21 L1290.22 2139.21 L1290.22 2135.99 L1299.00 2135.99 L1299.00 2135.00 L1307.91 2135.00 L1307.91 2131.29 L1316.70 2131.29 L1316.70 2128.57 L1325.61 2128.57 L1325.61 2126.96 L1334.52 2126.96 L1334.52 2126.46 L1343.31 2126.46 L1343.31 2124.85 L1352.22 2124.85 L1352.22 2122.63 L1361.00 2122.63 L1361.00 2121.02 L1369.91 2121.02 L1369.91 2116.81 L1378.70 2116.81 L1378.70 2116.31 L1387.61 2116.31 L1387.61 2113.10 L1396.40 2113.10 L1396.40 2112.48 L1405.31 2112.48 L1405.31 2110.37 L1414.09 2110.37 L1414.09 2108.27 L1423.00 2108.27 L1423.00 2106.66 L1431.79 2106.66 L1431.79 2105.05 L1440.70 2105.05 L1440.70 2103.94 L1449.61 2103.94 L1449.61 2103.44 L1458.39 2103.44 L1458.39 2101.84 L1467.30 2101.84 L1467.30 2099.73 L1476.09 2099.73 L1476.09 2097.01 L1485.00 2097.01 L1485.00 2095.40 L1493.79 2095.40 L1493.79 2092.80 L1502.70 2092.80 L1502.70 2090.08 L1511.48 2090.08 L1511.48 2088.97 L1520.39 2088.97 L1520.39 2087.98 L1529.18 2087.98 L1529.18 2085.25 L1538.09 2085.25 L1538.09 2083.64 L1546.88 2083.64 L1546.88 2082.04 L1555.79 2082.04 L1555.79 2077.83 L1564.70 2077.83 L1564.70 2076.71 L1573.48 2076.71 L1573.48 2073.50 L1582.39 2073.50 L1582.39 2071.39 L1591.18 2071.39 L1591.18 2068.67 L1600.09 2068.67 L1600.09 2066.07 L1608.87 2066.07 L1608.87 2063.84 L1617.78 2063.84 L1617.78 2062.23 L1626.57 2062.23 L1626.57 2059.64 L1635.48 2059.64 L1635.48 2054.81 L1644.27 2054.81 L1644.27 2054.31 L1653.18 2054.31 L1653.18 2051.59 L1662.09 2051.59 L1662.09 2048.87 L1670.87 2048.87 L1670.87 2047.26 L1679.78 2047.26 L1679.78 2043.55 L1688.57 2043.55 L1688.57 2040.95 L1697.48 2040.95 L1697.48 2035.50 L1706.27 2035.50 L1706.27 2033.89 L1715.18 2033.89 L1715.18 2032.29 L1723.96 2032.29 L1723.96 2027.58 L1732.87 2027.58 L1732.87 2024.86 L1741.66 2024.86 L1741.66 2022.14 L1750.57 2022.14 L1750.57 2020.03 L1759.35 2020.03 L1759.35 2017.93 L1768.26 2017.93 L1768.26 2012.61 L1777.17 2012.61 L1777.17 2011.99 L1785.96 2011.99 L1785.96 2007.78 L1794.87 2007.78 L1794.87 2006.67 L1803.66 2006.67 L1803.66 2005.68 L1812.57 2005.68 L1812.57 2005.06 L1821.35 2005.06 L1821.35 2002.96 L1830.26 2002.96 L1830.26 1999.74 L1839.05 1999.74 L1839.05 1997.02 L1847.96 1997.02 L1847.96 1995.41 L1856.75 1995.41 L1856.75 1993.30 L1865.66 1993.30 L1865.66 1990.70 L1874.57 1990.70 L1874.57 1986.87 L1883.35 1986.87 L1883.35 1984.76 L1892.26 1984.76 L1892.26 1979.94 L1901.05 1979.94 L1901.05 1977.83 L1909.96 1977.83 L1909.96 1976.23 L1927.65 1976.23 L1927.65 1975.73 L1936.44 1975.73 L1936.44 1974.12 L1945.35 1974.12 L1945.35 1968.68 L1954.14 1968.68 L1954.14 1966.08 L1963.05 1966.08 L1963.05 1964.96 L1971.83 1964.96 L1971.83 1961.75 L1980.74 1961.75 L1980.74 1960.76 L1989.65 1960.76 L1989.65 1958.53 L1998.44 1958.53 L1998.44 1957.54 L2007.35 1957.54 L2007.35 1953.83 L2016.14 1953.83 L2016.14 1952.71 L2025.05 1952.71 L2025.05 1951.60 L2033.83 1951.60 L2033.83 1947.39 L2042.74 1947.39 L2042.74 1943.06 L2051.53 1943.06 L2051.53 1938.23 L2060.44 1938.23 L2060.44 1934.52 L2069.22 1934.52 L2069.22 1932.42 L2078.13 1932.42 L2078.13 1929.20 L2087.04 1929.20 L2087.04 1928.09 L2095.83 1928.09 L2095.83 1925.49 L2104.74 1925.49 L2104.74 1923.26 L2113.53 1923.26 L2113.53 1920.04 L2122.44 1920.04 L2122.44 1918.43 L2131.22 1918.43 L2131.22 1916.95 L2140.13 1916.95 L2140.13 1914.72 L2148.92 1914.72 L2148.92 1912.12 L2157.83 1912.12 L2157.83 1911.01 L2166.61 1911.01 L2166.61 1909.40 L2175.53 1909.40 L2175.53 1907.29 L2184.31 1907.29 L2184.31 1906.18 L2193.22 1906.18 L2193.22 1904.08 L2202.13 1904.08 L2202.13 1901.97 L2210.92 1901.97 L2210.92 1897.64 L2219.83 1897.64 L2219.83 1896.03 L2228.61 1896.03 L2228.61 1893.93 L2237.52 1893.93 L2237.52 1891.21 L2246.31 1891.21 L2246.31 1890.71 L2255.22 1890.71 L2255.22 1887.99 L2264.01 1887.99 L2264.01 1884.28 L2281.70 1884.28 L2281.70 1883.16 L2290.61 1883.16 L2290.61 1882.17 L2299.52 1882.17 L2299.52 1879.45 L2308.31 1879.45 L2308.31 1878.46 L2317.22 1878.46 L2317.22 1877.35 L2326.01 1877.35 L2326.01 1873.63 L2334.92 1873.63 L2334.92 1870.42 L2343.70 1870.42 L2343.70 1866.58 L2352.61 1866.58 L2352.61 1866.08 L2361.40 1866.08 L2361.40 1863.49 L2370.31 1863.49 L2370.31 1861.26 L2379.09 1861.26 L2379.09 1859.15 L2388.00 1859.15 L2388.00 1856.43 L2396.79 1856.43 L2396.79 1854.33 L2405.70 1854.33 L2405.70 1850.12 L2414.61 1850.12 L2414.61 1847.89 L2423.40 1847.89 L2423.40 1846.90 L2432.31 1846.90 L2432.31 1844.68 L2441.09 1844.68 L2441.09 1842.57 L2450.00 1842.57 L2450.00 1838.86 L2458.79 1838.86 L2458.79 1835.15 L2467.70 1835.15 L2467.70 1832.42 L2476.49 1832.42 L2476.49 1831.31 L2485.40 1831.31 L2485.40 1828.09 L2494.18 1828.09 L2494.18 1827.10 L2503.09 1827.10 L2503.09 1825.99 L2512.00 1825.99 L2512.00 1825.00 L2520.79 1825.00 L2520.79 1822.77 L2529.70 1822.77 L2529.70 1821.16 L2538.48 1821.16 L2538.48 1817.45 L2547.39 1817.45 L2547.39 1814.85 L2556.18 1814.85 L2556.18 1810.02 L2565.09 1810.02 L2565.09 1807.80 L2573.88 1807.80 L2573.88 1806.81 L2582.79 1806.81 L2582.79 1804.08 L2591.57 1804.08 L2591.57 1801.98 L2600.48 1801.98 L2600.48 1800.37 L2609.27 1800.37 L2609.27 1797.15 L2618.18 1797.15 L2618.18 1794.43 L2627.09 1794.43 L2627.09 1793.94 L2635.88 1793.94 L2635.88 1791.83 L2644.79 1791.83 L2644.79 1790.22 L2653.57 1790.22 L2653.57 1788.12 L2662.48 1788.12 L2662.48 1787.01 L2671.27 1787.01 L2671.27 1784.90 L2680.18 1784.90 L2680.18 1783.29 L2688.96 1783.29 L2688.96 1780.08 L2697.87 1780.08 L2697.87 1776.36 L2706.66 1776.36 L2706.66 1773.15 L2715.57 1773.15 L2715.57 1772.03 L2724.36 1772.03 L2724.36 1770.42 L2733.27 1770.42 L2733.27 1768.32 L2742.18 1768.32 L2742.18 1763.99 L2750.96 1763.99 L2750.96 1762.38 L2759.87 1762.38 L2759.87 1760.28 L2768.66 1760.28 L2768.66 1757.06 L2777.57 1757.06 L2777.57 1754.33 L2786.36 1754.33 L2786.36 1752.73 L2795.27 1752.73 L2795.27 1750.13 L2804.05 1750.13 L2804.05 1749.01 L2812.96 1749.01 L2812.96 1746.41 L2821.75 1746.41 L2821.75 1744.81 L2830.66 1744.81 L2830.66 1744.19 L2848.35 1744.19 L2848.35 1741.59 L2857.26 1741.59 L2857.26 1740.47 L2866.05 1740.47 L2866.05 1738.37 L2874.96 1738.37 L2874.96 1737.26 L2883.75 1737.26 L2883.75 1733.54 L2892.66 1733.54 L2892.66 1732.43 L2901.44 1732.43 L2901.44 1727.60 L2910.35 1727.60 L2910.35 1726.12 L2919.14 1726.12 L2919.14 1722.90 L2928.05 1722.90 L2928.05 1721.29 L2936.84 1721.29 L2936.84 1719.06 L2945.75 1719.06 L2945.75 1717.46 L2954.66 1717.46 L2954.66 1715.35 L2963.44 1715.35 L2963.44 1713.25 L2972.35 1713.25 L2972.35 1711.64 L2981.14 1711.64 L2981.14 1708.92 L2990.05 1708.92 L2990.05 1705.20 L2998.83 1705.20 L2998.83 1703.10 L3007.74 1703.10 L3007.74 1699.88 L3016.53 1699.88 L3016.53 1696.67 L3025.44 1696.67 L3025.44 1693.94 L3034.23 1693.94 L3034.23 1692.95 L3043.14 1692.95 L3043.14 1691.84 L3052.05 1691.84 L3052.05 1687.63 L3060.83 1687.63 L3060.83 1682.81 L3069.74 1682.81 L3069.74 1681.20 L3078.53 1681.20 L3078.53 1678.47 L3087.44 1678.47 L3087.44 1674.27 L3096.23 1674.27 L3096.23 1673.15 L3105.14 1673.15 L3105.14 1669.93 L3113.92 1669.93 L3113.92 1667.83 L3122.83 1667.83 L3122.83 1666.22 L3131.62 1666.22 L3131.62 1662.39 L3140.53 1662.39 L3140.53 1661.40 L3149.31 1661.40 L3149.31 1656.57 L3158.22 1656.57 L3158.22 1654.47 L3167.13 1654.47 L3167.13 1650.13 L3175.92 1650.13 L3175.92 1646.42 L3184.83 1646.42 L3184.83 1644.19 L3193.62 1644.19 L3193.62 1640.85 L3202.53 1640.85 L3202.53 1637.02 L3211.31 1637.02 L3211.31 1633.06 L3220.22 1633.06 L3220.22 1631.94 L3229.01 1631.94 L3229.01 1628.48 L3237.92 1628.48 L3237.92 1628.48 L3246.71 1628.48 L3246.71 1626.13 L3255.62 1626.13 L3255.62 1623.65 L3264.53 1623.65 L3264.53 1621.79 L3273.31 1621.79 L3273.31 1619.32 L3282.22 1619.32 L3282.22 1618.08 L3291.01 1618.08 L3291.01 1617.46 L3299.92 1617.46 L3299.92 1614.74 L3308.70 1614.74 L3308.70 1612.76 L3317.61 1612.76 L3317.61 1611.40 L3326.40 1611.40 L3326.40 1609.30 L3335.31 1609.30 L3335.31 1606.57 L3344.10 1606.57 L3344.10 1600.63 L3353.01 1600.63 L3353.01 1599.89 L3361.79 1599.89 L3361.79 1596.18 L3370.70 1596.18 L3370.70 1593.08 L3379.61 1593.08 L3379.61 1588.38 L3388.40 1588.38 L3388.40 1585.16 L3397.31 1585.16 L3397.31 1583.43 L3406.10 1583.43 L3406.10 1580.96 L3415.01 1580.96 L3415.01 1579.22 L3423.79 1579.22 L3423.79 1578.36 L3432.70 1578.36 L3432.70 1574.64 L3441.49 1574.64 L3441.49 1573.78 L3450.40 1573.78 L3450.40 1571.80 L3459.18 1571.80 L3459.18 1570.81 L3468.09 1570.81 L3468.09 1569.82 L3477.00 1569.82 L3477.00 1567.84 L3485.79 1567.84 L3485.79 1566.72 L3494.70 1566.72 L3494.70 1561.28 L3503.49 1561.28 L3503.49 1556.70 L3512.40 1556.70 L3512.40 1556.70 L3521.18 1556.70 L3521.18 1555.59 L3530.09 1555.59 L3530.09 1554.35 L3538.88 1554.35 L3538.88 1549.15 L3547.79 1549.15 L3547.79 1543.83 L3556.58 1543.83 L3556.58 1540.98 L3565.49 1540.98 L3565.49 1539.62 L3574.27 1539.62 L3574.27 1536.65 L3583.18 1536.65 L3583.18 1536.65 L3592.09 1536.65 L3592.09 1536.65 L3600.88 1536.65 L3600.88 1533.31 L3609.79 1533.31 L3609.79 1531.45 L3618.57 1531.45 L3618.57 1524.15 L3627.48 1524.15 L3627.48 1524.15 L3636.27 1524.15 L3636.27 1518.21 L3645.18 1518.21 L3645.18 1518.21 L3653.97 1518.21 L3653.97 1513.63 L3662.88 1513.63 L3662.88 1511.28 L3671.66 1511.28 L3671.66 1506.08 L3680.57 1506.08 L3680.57 1506.08 L3689.36 1506.08 L3689.36 1506.08 L3698.27 1506.08 L3698.27 1506.08 L3707.18 1506.08 L3707.18 1506.08 L3715.97 1506.08 L3715.97 1506.08 L3724.88 1506.08 L3724.88 1506.08 L3733.66 1506.08 L3733.66 1506.08 L3742.57 1506.08 L3742.57 1506.08 L3751.36 1506.08 L3751.36 1506.08 L3760.27 1506.08 L3760.27 1506.08 L3769.05 1506.08 L3769.05 1506.08 L3777.96 1506.08 L3777.96 1506.08 L3786.75 1506.08 L3786.75 1506.08 L3795.66 1506.08 L3795.66 1506.08" stroke-linejoin="round" style="fill:none;stroke:#90353B;stroke-width:8.64"/>
	<path d=" M493.39 2311.35 L493.39 2311.35 L493.39 2311.35 L493.39 2311.35 L493.39 2311.35 L493.39 2311.35 L493.39 2311.35 L493.39 2311.35 L493.39 2311.35 L502.30 2311.35 L502.30 2310.36 L511.09 2310.36 L511.09 2309.62 L520.00 2309.62 L520.00 2307.14 L528.78 2307.14 L528.78 2305.41 L537.69 2305.41 L537.69 2303.55 L546.48 2303.55 L546.48 2301.45 L555.39 2301.45 L555.39 2299.35 L564.18 2299.35 L564.18 2296.87 L573.09 2296.87 L573.09 2294.03 L581.87 2294.03 L581.87 2292.66 L590.78 2292.66 L590.78 2289.45 L599.69 2289.45 L599.69 2287.71 L608.48 2287.71 L608.48 2285.98 L617.39 2285.98 L617.39 2282.39 L626.17 2282.39 L626.17 2279.30 L635.09 2279.30 L635.09 2277.44 L643.87 2277.44 L643.87 2276.45 L652.78 2276.45 L652.78 2273.98 L661.57 2273.98 L661.57 2269.40 L670.48 2269.40 L670.48 2267.29 L679.26 2267.29 L679.26 2266.18 L688.17 2266.18 L688.17 2262.72 L697.08 2262.72 L697.08 2261.60 L705.87 2261.60 L705.87 2260.24 L714.78 2260.24 L714.78 2259.13 L723.57 2259.13 L723.57 2257.02 L732.48 2257.02 L732.48 2253.56 L741.26 2253.56 L741.26 2249.97 L750.17 2249.97 L750.17 2249.23 L758.96 2249.23 L758.96 2248.61 L767.87 2248.61 L767.87 2246.50 L776.66 2246.50 L776.66 2242.92 L785.57 2242.92 L785.57 2241.18 L794.35 2241.18 L794.35 2240.44 L803.26 2240.44 L803.26 2239.08 L812.17 2239.08 L812.17 2235.86 L820.96 2235.86 L820.96 2233.76 L829.87 2233.76 L829.87 2231.65 L838.65 2231.65 L838.65 2228.81 L847.56 2228.81 L847.56 2226.33 L856.35 2226.33 L856.35 2223.86 L865.26 2223.86 L865.26 2221.38 L874.05 2221.38 L874.05 2219.28 L882.96 2219.28 L882.96 2216.80 L891.74 2216.80 L891.74 2214.33 L900.65 2214.33 L900.65 2211.85 L909.56 2211.85 L909.56 2208.64 L918.35 2208.64 L918.35 2206.16 L927.26 2206.16 L927.26 2204.06 L936.05 2204.06 L936.05 2201.95 L944.96 2201.95 L944.96 2199.85 L953.74 2199.85 L953.74 2196.75 L962.65 2196.75 L962.65 2194.53 L971.44 2194.53 L971.44 2192.42 L980.35 2192.42 L980.35 2190.32 L989.13 2190.32 L989.13 2188.22 L998.04 2188.22 L998.04 2186.48 L1006.83 2186.48 L1006.83 2182.28 L1015.74 2182.28 L1015.74 2178.32 L1024.65 2178.32 L1024.65 2175.47 L1033.44 2175.47 L1033.44 2173.74 L1042.35 2173.74 L1042.35 2170.89 L1051.13 2170.89 L1051.13 2166.68 L1060.04 2166.68 L1060.04 2165.69 L1068.83 2165.69 L1068.83 2162.48 L1077.74 2162.48 L1077.74 2160.37 L1086.53 2160.37 L1086.53 2158.64 L1095.44 2158.64 L1095.44 2154.68 L1104.22 2154.68 L1104.22 2152.57 L1113.13 2152.57 L1113.13 2151.58 L1122.04 2151.58 L1122.04 2149.11 L1130.83 2149.11 L1130.83 2147.25 L1139.74 2147.25 L1139.74 2146.26 L1148.52 2146.26 L1148.52 2142.30 L1157.43 2142.30 L1157.43 2139.21 L1166.22 2139.21 L1166.22 2133.52 L1175.13 2133.52 L1175.13 2130.05 L1183.92 2130.05 L1183.92 2127.95 L1192.83 2127.95 L1192.83 2126.09 L1201.61 2126.09 L1201.61 2123.62 L1210.52 2123.62 L1210.52 2120.77 L1219.31 2120.77 L1219.31 2117.68 L1228.22 2117.68 L1228.22 2113.47 L1237.13 2113.47 L1237.13 2110.25 L1245.92 2110.25 L1245.92 2106.66 L1254.83 2106.66 L1254.83 2103.94 L1263.61 2103.94 L1263.61 2100.35 L1272.52 2100.35 L1272.52 2097.13 L1281.31 2097.13 L1281.31 2094.04 L1290.22 2094.04 L1290.22 2091.56 L1299.00 2091.56 L1299.00 2088.35 L1307.91 2088.35 L1307.91 2085.50 L1316.70 2085.50 L1316.70 2083.77 L1325.61 2083.77 L1325.61 2081.29 L1334.52 2081.29 L1334.52 2079.19 L1343.31 2079.19 L1343.31 2075.35 L1352.22 2075.35 L1352.22 2068.92 L1361.00 2068.92 L1361.00 2066.19 L1369.91 2066.19 L1369.91 2063.72 L1378.70 2063.72 L1378.70 2059.14 L1387.61 2059.14 L1387.61 2056.67 L1396.40 2056.67 L1396.40 2053.45 L1405.31 2053.45 L1405.31 2047.14 L1414.09 2047.14 L1414.09 2043.55 L1423.00 2043.55 L1423.00 2041.44 L1431.79 2041.44 L1431.79 2039.71 L1440.70 2039.71 L1440.70 2036.86 L1449.61 2036.86 L1449.61 2031.91 L1458.39 2031.91 L1458.39 2028.70 L1467.30 2028.70 L1467.30 2025.97 L1476.09 2025.97 L1476.09 2022.39 L1485.00 2022.39 L1485.00 2019.91 L1493.79 2019.91 L1493.79 2014.59 L1502.70 2014.59 L1502.70 2010.75 L1511.48 2010.75 L1511.48 2007.54 L1520.39 2007.54 L1520.39 2005.06 L1529.18 2005.06 L1529.18 2002.21 L1538.09 2002.21 L1538.09 1999.49 L1546.88 1999.49 L1546.88 1995.90 L1555.79 1995.90 L1555.79 1992.07 L1564.70 1992.07 L1564.70 1989.96 L1573.48 1989.96 L1573.48 1988.11 L1582.39 1988.11 L1582.39 1986.37 L1591.18 1986.37 L1591.18 1983.16 L1600.09 1983.16 L1600.09 1980.43 L1608.87 1980.43 L1608.87 1975.48 L1617.78 1975.48 L1617.78 1974.00 L1626.57 1974.00 L1626.57 1969.42 L1635.48 1969.42 L1635.48 1966.33 L1644.27 1966.33 L1644.27 1962.37 L1653.18 1962.37 L1653.18 1959.52 L1662.09 1959.52 L1662.09 1955.68 L1670.87 1955.68 L1670.87 1952.84 L1679.78 1952.84 L1679.78 1948.63 L1688.57 1948.63 L1688.57 1945.78 L1697.48 1945.78 L1697.48 1941.95 L1706.27 1941.95 L1706.27 1940.21 L1715.18 1940.21 L1715.18 1937.74 L1723.96 1937.74 L1723.96 1934.89 L1732.87 1934.89 L1732.87 1930.31 L1741.66 1930.31 L1741.66 1928.21 L1750.57 1928.21 L1750.57 1924.25 L1759.35 1924.25 L1759.35 1922.15 L1768.26 1922.15 L1768.26 1916.58 L1777.17 1916.58 L1777.17 1913.73 L1785.96 1913.73 L1785.96 1911.25 L1794.87 1911.25 L1794.87 1908.04 L1803.66 1908.04 L1803.66 1904.57 L1812.57 1904.57 L1812.57 1900.24 L1821.35 1900.24 L1821.35 1898.51 L1830.26 1898.51 L1830.26 1896.78 L1839.05 1896.78 L1839.05 1896.40 L1847.96 1896.40 L1847.96 1893.56 L1856.75 1893.56 L1856.75 1891.83 L1865.66 1891.83 L1865.66 1887.25 L1874.57 1887.25 L1874.57 1884.77 L1883.35 1884.77 L1883.35 1882.67 L1892.26 1882.67 L1892.26 1879.45 L1901.05 1879.45 L1901.05 1876.36 L1909.96 1876.36 L1909.96 1873.51 L1918.74 1873.51 L1918.74 1872.02 L1927.65 1872.02 L1927.65 1869.92 L1936.44 1869.92 L1936.44 1866.46 L1945.35 1866.46 L1945.35 1864.97 L1954.14 1864.97 L1954.14 1862.87 L1963.05 1862.87 L1963.05 1859.77 L1971.83 1859.77 L1971.83 1856.18 L1980.74 1856.18 L1980.74 1853.71 L1989.65 1853.71 L1989.65 1851.23 L1998.44 1851.23 L1998.44 1849.87 L2007.35 1849.87 L2007.35 1846.66 L2016.14 1846.66 L2016.14 1845.29 L2025.05 1845.29 L2025.05 1842.08 L2033.83 1842.08 L2033.83 1838.86 L2042.74 1838.86 L2042.74 1835.39 L2051.53 1835.39 L2051.53 1832.55 L2060.44 1832.55 L2060.44 1829.08 L2069.22 1829.08 L2069.22 1825.86 L2078.13 1825.86 L2078.13 1823.39 L2087.04 1823.39 L2087.04 1819.18 L2095.83 1819.18 L2095.83 1815.22 L2104.74 1815.22 L2104.74 1813.12 L2113.53 1813.12 L2113.53 1810.02 L2122.44 1810.02 L2122.44 1806.44 L2131.22 1806.44 L2131.22 1804.70 L2140.13 1804.70 L2140.13 1802.23 L2148.92 1802.23 L2148.92 1797.28 L2157.83 1797.28 L2157.83 1794.43 L2166.61 1794.43 L2166.61 1791.96 L2175.53 1791.96 L2175.53 1789.85 L2184.31 1789.85 L2184.31 1786.02 L2193.22 1786.02 L2193.22 1783.17 L2202.13 1783.17 L2202.13 1781.07 L2210.92 1781.07 L2210.92 1777.85 L2219.83 1777.85 L2219.83 1775.74 L2228.61 1775.74 L2228.61 1773.64 L2237.52 1773.64 L2237.52 1772.53 L2246.31 1772.53 L2246.31 1770.05 L2255.22 1770.05 L2255.22 1768.69 L2264.01 1768.69 L2264.01 1763.37 L2272.92 1763.37 L2272.92 1760.89 L2281.70 1760.89 L2281.70 1757.80 L2290.61 1757.80 L2290.61 1757.06 L2299.52 1757.06 L2299.52 1755.57 L2308.31 1755.57 L2308.31 1752.85 L2317.22 1752.85 L2317.22 1750.75 L2326.01 1750.75 L2326.01 1748.52 L2334.92 1748.52 L2334.92 1746.41 L2343.70 1746.41 L2343.70 1744.68 L2352.61 1744.68 L2352.61 1741.46 L2361.40 1741.46 L2361.40 1739.73 L2370.31 1739.73 L2370.31 1736.51 L2379.09 1736.51 L2379.09 1733.42 L2388.00 1733.42 L2388.00 1731.69 L2396.79 1731.69 L2396.79 1728.47 L2405.70 1728.47 L2405.70 1725.25 L2414.61 1725.25 L2414.61 1722.78 L2423.40 1722.78 L2423.40 1722.16 L2432.31 1722.16 L2432.31 1719.68 L2441.09 1719.68 L2441.09 1719.31 L2450.00 1719.31 L2450.00 1717.58 L2458.79 1717.58 L2458.79 1714.73 L2467.70 1714.73 L2467.70 1711.52 L2476.49 1711.52 L2476.49 1709.78 L2485.40 1709.78 L2485.40 1706.94 L2494.18 1706.94 L2494.18 1703.10 L2503.09 1703.10 L2503.09 1700.87 L2512.00 1700.87 L2512.00 1699.88 L2520.79 1699.88 L2520.79 1697.41 L2529.70 1697.41 L2529.70 1694.93 L2538.48 1694.93 L2538.48 1692.83 L2547.39 1692.83 L2547.39 1689.61 L2556.18 1689.61 L2556.18 1688.25 L2565.09 1688.25 L2565.09 1686.52 L2573.88 1686.52 L2573.88 1685.78 L2582.79 1685.78 L2582.79 1683.30 L2591.57 1683.30 L2591.57 1681.20 L2600.48 1681.20 L2600.48 1677.24 L2609.27 1677.24 L2609.27 1674.51 L2618.18 1674.51 L2618.18 1671.67 L2627.09 1671.67 L2627.09 1667.71 L2635.88 1667.71 L2635.88 1666.72 L2644.79 1666.72 L2644.79 1663.50 L2653.57 1663.50 L2653.57 1660.41 L2662.48 1660.41 L2662.48 1658.18 L2671.27 1658.18 L2671.27 1656.82 L2680.18 1656.82 L2680.18 1654.34 L2688.96 1654.34 L2688.96 1651.50 L2697.87 1651.50 L2697.87 1650.13 L2706.66 1650.13 L2706.66 1645.56 L2715.57 1645.56 L2715.57 1644.44 L2724.36 1644.44 L2724.36 1641.35 L2733.27 1641.35 L2733.27 1637.76 L2742.18 1637.76 L2742.18 1636.03 L2750.96 1636.03 L2750.96 1635.28 L2759.87 1635.28 L2759.87 1632.44 L2768.66 1632.44 L2768.66 1629.71 L2777.57 1629.71 L2777.57 1627.49 L2786.36 1627.49 L2786.36 1625.01 L2795.27 1625.01 L2795.27 1621.92 L2804.05 1621.92 L2804.05 1618.33 L2812.96 1618.33 L2812.96 1616.23 L2821.75 1616.23 L2821.75 1614.12 L2830.66 1614.12 L2830.66 1612.02 L2839.57 1612.02 L2839.57 1608.18 L2848.35 1608.18 L2848.35 1606.70 L2857.26 1606.70 L2857.26 1604.59 L2866.05 1604.59 L2866.05 1601.38 L2874.96 1601.38 L2874.96 1598.90 L2883.75 1598.90 L2883.75 1597.17 L2892.66 1597.17 L2892.66 1596.18 L2901.44 1596.18 L2901.44 1592.59 L2910.35 1592.59 L2910.35 1590.86 L2919.14 1590.86 L2919.14 1589.12 L2928.05 1589.12 L2928.05 1586.65 L2936.84 1586.65 L2936.84 1584.17 L2945.75 1584.17 L2945.75 1581.33 L2954.66 1581.33 L2954.66 1578.11 L2963.44 1578.11 L2963.44 1574.64 L2972.35 1574.64 L2972.35 1571.06 L2981.14 1571.06 L2981.14 1568.21 L2990.05 1568.21 L2990.05 1566.85 L2998.83 1566.85 L2998.83 1566.11 L3007.74 1566.11 L3007.74 1565.49 L3016.53 1565.49 L3016.53 1563.38 L3025.44 1563.38 L3025.44 1560.17 L3034.23 1560.17 L3034.23 1559.42 L3043.14 1559.42 L3043.14 1556.58 L3052.05 1556.58 L3052.05 1554.10 L3060.83 1554.10 L3060.83 1552.74 L3069.74 1552.74 L3069.74 1550.64 L3078.53 1550.64 L3078.53 1547.42 L3087.44 1547.42 L3087.44 1545.69 L3096.23 1545.69 L3096.23 1544.57 L3105.14 1544.57 L3105.14 1543.21 L3113.92 1543.21 L3113.92 1541.48 L3122.83 1541.48 L3122.83 1538.63 L3131.62 1538.63 L3131.62 1536.53 L3140.53 1536.53 L3140.53 1533.31 L3149.31 1533.31 L3149.31 1531.21 L3158.22 1531.21 L3158.22 1528.73 L3167.13 1528.73 L3167.13 1525.51 L3175.92 1525.51 L3175.92 1523.04 L3184.83 1523.04 L3184.83 1520.94 L3193.62 1520.94 L3193.62 1517.59 L3202.53 1517.59 L3202.53 1514.99 L3211.31 1514.99 L3211.31 1511.28 L3220.22 1511.28 L3220.22 1508.93 L3229.01 1508.93 L3229.01 1507.07 L3237.92 1507.07 L3237.92 1503.86 L3246.71 1503.86 L3246.71 1500.76 L3255.62 1500.76 L3255.62 1497.92 L3264.53 1497.92 L3264.53 1494.58 L3273.31 1494.58 L3273.31 1492.60 L3282.22 1492.60 L3282.22 1489.63 L3291.01 1489.63 L3291.01 1486.16 L3299.92 1486.16 L3299.92 1484.06 L3308.70 1484.06 L3308.70 1482.20 L3317.61 1482.20 L3317.61 1479.97 L3326.40 1479.97 L3326.40 1477.74 L3335.31 1477.74 L3335.31 1475.76 L3344.10 1475.76 L3344.10 1473.91 L3353.01 1473.91 L3353.01 1467.97 L3361.79 1467.97 L3361.79 1463.88 L3370.70 1463.88 L3370.70 1461.90 L3379.61 1461.90 L3379.61 1461.29 L3388.40 1461.29 L3388.40 1460.30 L3397.31 1460.30 L3397.31 1458.07 L3406.10 1458.07 L3406.10 1457.45 L3415.01 1457.45 L3415.01 1455.10 L3423.79 1455.10 L3423.79 1453.37 L3432.70 1453.37 L3432.70 1452.13 L3441.49 1452.13 L3441.49 1449.53 L3450.40 1449.53 L3450.40 1446.31 L3459.18 1446.31 L3459.18 1442.35 L3468.09 1442.35 L3468.09 1440.25 L3477.00 1440.25 L3477.00 1436.78 L3485.79 1436.78 L3485.79 1433.07 L3494.70 1433.07 L3494.70 1429.36 L3503.49 1429.36 L3503.49 1424.78 L3512.40 1424.78 L3512.40 1424.04 L3521.18 1424.04 L3521.18 1423.17 L3530.09 1423.17 L3530.09 1417.35 L3538.88 1417.35 L3538.88 1414.75 L3547.79 1414.75 L3547.79 1413.76 L3556.58 1413.76 L3556.58 1411.91 L3565.49 1411.91 L3565.49 1411.91 L3574.27 1411.91 L3574.27 1410.92 L3583.18 1410.92 L3583.18 1409.80 L3592.09 1409.80 L3592.09 1405.23 L3600.88 1405.23 L3600.88 1404.11 L3609.79 1404.11 L3609.79 1402.75 L3618.57 1402.75 L3618.57 1402.75 L3627.48 1402.75 L3627.48 1401.39 L3636.27 1401.39 L3636.27 1393.72 L3645.18 1393.72 L3645.18 1385.67 L3653.97 1385.67 L3653.97 1385.67 L3662.88 1385.67 L3662.88 1381.96 L3671.66 1381.96 L3671.66 1378.00 L3680.57 1378.00 L3680.57 1378.00 L3689.36 1378.00 L3689.36 1371.19 L3698.27 1371.19 L3698.27 1368.84 L3707.18 1368.84 L3707.18 1368.84 L3715.97 1368.84 L3715.97 1368.84 L3724.88 1368.84 L3724.88 1365.13 L3733.66 1365.13 L3733.66 1365.13 L3742.57 1365.13 L3742.57 1360.55 L3751.36 1360.55 L3751.36 1360.55 L3760.27 1360.55 L3760.27 1360.55 L3769.05 1360.55 L3769.05 1360.55 L3777.96 1360.55 L3777.96 1360.55 L3786.75 1360.55 L3786.75 1360.55 L3795.66 1360.55 L3795.66 1360.55" stroke-linejoin="round" style="fill:none;stroke:#55752F;stroke-width:8.64"/>
	<path d=" M493.39 2311.35 L493.39 2311.35 L493.39 2311.35 L493.39 2311.35 L493.39 2311.35 L493.39 2311.35 L493.39 2311.35 L493.39 2311.35 L493.39 2311.35 L502.30 2311.35 L502.30 2307.51 L511.09 2307.51 L511.09 2301.20 L520.00 2301.20 L520.00 2300.58 L528.78 2300.58 L528.78 2297.99 L537.69 2297.99 L537.69 2296.01 L546.48 2296.01 L546.48 2290.93 L555.39 2290.93 L555.39 2287.71 L564.18 2287.71 L564.18 2283.88 L573.09 2283.88 L573.09 2280.78 L581.87 2280.78 L581.87 2276.33 L590.78 2276.33 L590.78 2271.13 L599.69 2271.13 L599.69 2266.68 L608.48 2266.68 L608.48 2264.82 L617.39 2264.82 L617.39 2260.98 L626.17 2260.98 L626.17 2257.15 L635.09 2257.15 L635.09 2255.17 L643.87 2255.17 L643.87 2251.45 L652.78 2251.45 L652.78 2248.86 L661.57 2248.86 L661.57 2245.02 L670.48 2245.02 L670.48 2241.80 L679.26 2241.80 L679.26 2238.58 L688.17 2238.58 L688.17 2234.87 L697.08 2234.87 L697.08 2230.29 L705.87 2230.29 L705.87 2222.74 L714.78 2222.74 L714.78 2215.69 L723.57 2215.69 L723.57 2209.87 L732.48 2209.87 L732.48 2204.80 L741.26 2204.80 L741.26 2200.96 L750.17 2200.96 L750.17 2196.51 L758.96 2196.51 L758.96 2193.29 L767.87 2193.29 L767.87 2188.83 L776.66 2188.83 L776.66 2185.00 L785.57 2185.00 L785.57 2181.16 L794.35 2181.16 L794.35 2174.23 L803.26 2174.23 L803.26 2170.40 L812.17 2170.40 L812.17 2163.34 L820.96 2163.34 L820.96 2157.03 L829.87 2157.03 L829.87 2150.59 L838.65 2150.59 L838.65 2148.00 L847.56 2148.00 L847.56 2141.07 L856.35 2141.07 L856.35 2137.23 L865.26 2137.23 L865.26 2133.39 L874.05 2133.39 L874.05 2126.34 L882.96 2126.34 L882.96 2123.74 L891.74 2123.74 L891.74 2120.65 L900.65 2120.65 L900.65 2116.19 L909.56 2116.19 L909.56 2112.97 L918.35 2112.97 L918.35 2107.90 L927.26 2107.90 L927.26 2103.32 L936.05 2103.32 L936.05 2096.39 L944.96 2096.39 L944.96 2091.94 L953.74 2091.94 L953.74 2088.10 L962.65 2088.10 L962.65 2084.26 L971.44 2084.26 L971.44 2077.83 L980.35 2077.83 L980.35 2073.99 L989.13 2073.99 L989.13 2068.30 L998.04 2068.30 L998.04 2062.61 L1006.83 2062.61 L1006.83 2060.01 L1015.74 2060.01 L1015.74 2056.79 L1024.65 2056.79 L1024.65 2051.10 L1033.44 2051.10 L1033.44 2047.88 L1042.35 2047.88 L1042.35 2044.04 L1051.13 2044.04 L1051.13 2035.13 L1060.04 2035.13 L1060.04 2033.15 L1068.83 2033.15 L1068.83 2027.46 L1077.74 2027.46 L1077.74 2021.77 L1086.53 2021.77 L1086.53 2019.17 L1095.44 2019.17 L1095.44 2015.95 L1104.22 2015.95 L1104.22 2010.88 L1113.13 2010.88 L1113.13 2003.20 L1122.04 2003.20 L1122.04 2001.35 L1130.83 2001.35 L1130.83 1999.37 L1139.74 1999.37 L1139.74 1995.53 L1148.52 1995.53 L1148.52 1990.46 L1157.43 1990.46 L1157.43 1984.02 L1166.22 1984.02 L1166.22 1978.33 L1175.13 1978.33 L1175.13 1976.47 L1183.92 1976.47 L1183.92 1970.66 L1192.83 1970.66 L1192.83 1966.82 L1201.61 1966.82 L1201.61 1962.98 L1210.52 1962.98 L1210.52 1957.91 L1219.31 1957.91 L1219.31 1954.07 L1228.22 1954.07 L1228.22 1945.16 L1237.13 1945.16 L1237.13 1934.89 L1245.92 1934.89 L1245.92 1930.44 L1254.83 1930.44 L1254.83 1925.98 L1263.61 1925.98 L1263.61 1922.15 L1272.52 1922.15 L1272.52 1917.69 L1281.31 1917.69 L1281.31 1911.38 L1290.22 1911.38 L1290.22 1908.78 L1299.00 1908.78 L1299.00 1904.32 L1307.91 1904.32 L1307.91 1899.87 L1316.70 1899.87 L1316.70 1897.89 L1325.61 1897.89 L1325.61 1894.05 L1334.52 1894.05 L1334.52 1887.74 L1343.31 1887.74 L1343.31 1885.14 L1352.22 1885.14 L1352.22 1882.67 L1361.00 1882.67 L1361.00 1880.69 L1369.91 1880.69 L1369.91 1875.61 L1378.70 1875.61 L1378.70 1871.78 L1387.61 1871.78 L1387.61 1869.92 L1396.40 1869.92 L1396.40 1866.08 L1405.31 1866.08 L1405.31 1862.25 L1414.09 1862.25 L1414.09 1854.58 L1423.00 1854.58 L1423.00 1849.50 L1431.79 1849.50 L1431.79 1845.05 L1440.70 1845.05 L1440.70 1841.21 L1449.61 1841.21 L1449.61 1836.63 L1458.39 1836.63 L1458.39 1832.18 L1467.30 1832.18 L1467.30 1825.86 L1476.09 1825.86 L1476.09 1820.79 L1485.00 1820.79 L1485.00 1816.95 L1493.79 1816.95 L1493.79 1812.50 L1502.70 1812.50 L1502.70 1807.30 L1511.48 1807.30 L1511.48 1805.45 L1520.39 1805.45 L1520.39 1804.21 L1529.18 1804.21 L1529.18 1801.61 L1538.09 1801.61 L1538.09 1795.92 L1546.88 1795.92 L1546.88 1792.70 L1555.79 1792.70 L1555.79 1790.10 L1564.70 1790.10 L1564.70 1785.03 L1573.48 1785.03 L1573.48 1779.21 L1582.39 1779.21 L1582.39 1777.35 L1591.18 1777.35 L1591.18 1770.92 L1600.09 1770.92 L1600.09 1768.44 L1608.87 1768.44 L1608.87 1763.37 L1617.78 1763.37 L1617.78 1757.55 L1626.57 1757.55 L1626.57 1753.72 L1635.48 1753.72 L1635.48 1749.88 L1644.27 1749.88 L1644.27 1741.59 L1653.18 1741.59 L1653.18 1735.28 L1662.09 1735.28 L1662.09 1732.06 L1670.87 1732.06 L1670.87 1728.84 L1679.78 1728.84 L1679.78 1725.62 L1688.57 1725.62 L1688.57 1720.55 L1697.48 1720.55 L1697.48 1717.33 L1706.27 1717.33 L1706.27 1712.26 L1715.18 1712.26 L1715.18 1708.42 L1723.96 1708.42 L1723.96 1705.20 L1732.87 1705.20 L1732.87 1703.97 L1741.66 1703.97 L1741.66 1701.49 L1750.57 1701.49 L1750.57 1697.66 L1759.35 1697.66 L1759.35 1694.44 L1768.26 1694.44 L1768.26 1691.22 L1777.17 1691.22 L1777.17 1688.00 L1785.96 1688.00 L1785.96 1682.93 L1794.87 1682.93 L1794.87 1679.09 L1803.66 1679.09 L1803.66 1675.87 L1812.57 1675.87 L1812.57 1671.42 L1821.35 1671.42 L1821.35 1668.20 L1830.26 1668.20 L1830.26 1664.49 L1839.05 1664.49 L1839.05 1660.65 L1847.96 1660.65 L1847.96 1658.05 L1856.75 1658.05 L1856.75 1654.84 L1865.66 1654.84 L1865.66 1651.62 L1874.57 1651.62 L1874.57 1647.78 L1883.35 1647.78 L1883.35 1642.71 L1892.26 1642.71 L1892.26 1640.23 L1901.05 1640.23 L1901.05 1635.04 L1909.96 1635.04 L1909.96 1631.94 L1918.74 1631.94 L1918.74 1628.72 L1927.65 1628.72 L1927.65 1622.29 L1936.44 1622.29 L1936.44 1619.07 L1945.35 1619.07 L1945.35 1616.60 L1954.14 1616.60 L1954.14 1612.14 L1963.05 1612.14 L1963.05 1610.16 L1971.83 1610.16 L1971.83 1606.33 L1980.74 1606.33 L1980.74 1601.87 L1989.65 1601.87 L1989.65 1598.03 L1998.44 1598.03 L1998.44 1593.58 L2007.35 1593.58 L2007.35 1587.89 L2016.14 1587.89 L2016.14 1584.67 L2025.05 1584.67 L2025.05 1580.83 L2033.83 1580.83 L2033.83 1576.38 L2042.74 1576.38 L2042.74 1574.52 L2051.53 1574.52 L2051.53 1571.30 L2060.44 1571.30 L2060.44 1568.70 L2069.22 1568.70 L2069.22 1564.25 L2078.13 1564.25 L2078.13 1561.65 L2087.04 1561.65 L2087.04 1559.17 L2095.83 1559.17 L2095.83 1555.96 L2104.74 1555.96 L2104.74 1550.88 L2113.53 1550.88 L2113.53 1548.28 L2122.44 1548.28 L2122.44 1547.05 L2131.22 1547.05 L2131.22 1544.45 L2140.13 1544.45 L2140.13 1541.97 L2148.92 1541.97 L2148.92 1535.54 L2157.83 1535.54 L2157.83 1531.08 L2166.61 1531.08 L2166.61 1527.87 L2175.53 1527.87 L2175.53 1524.03 L2184.31 1524.03 L2184.31 1521.55 L2193.22 1521.55 L2193.22 1516.36 L2202.13 1516.36 L2202.13 1515.12 L2210.92 1515.12 L2210.92 1512.52 L2219.83 1512.52 L2219.83 1508.81 L2228.61 1508.81 L2228.61 1508.06 L2237.52 1508.06 L2237.52 1506.21 L2246.31 1506.21 L2246.31 1503.61 L2255.22 1503.61 L2255.22 1500.52 L2264.01 1500.52 L2264.01 1495.94 L2272.92 1495.94 L2272.92 1492.84 L2281.70 1492.84 L2281.70 1488.39 L2290.61 1488.39 L2290.61 1485.17 L2299.52 1485.17 L2299.52 1483.19 L2308.31 1483.19 L2308.31 1478.12 L2317.22 1478.12 L2317.22 1474.90 L2326.01 1474.90 L2326.01 1471.06 L2334.92 1471.06 L2334.92 1470.44 L2343.70 1470.44 L2343.70 1464.75 L2352.61 1464.75 L2352.61 1459.68 L2361.40 1459.68 L2361.40 1455.84 L2370.31 1455.84 L2370.31 1450.64 L2379.09 1450.64 L2379.09 1446.19 L2388.00 1446.19 L2388.00 1442.35 L2396.79 1442.35 L2396.79 1438.51 L2405.70 1438.51 L2405.70 1433.44 L2414.61 1433.44 L2414.61 1431.58 L2423.40 1431.58 L2423.40 1429.60 L2432.31 1429.60 L2432.31 1425.77 L2441.09 1425.77 L2441.09 1423.29 L2450.00 1423.29 L2450.00 1421.93 L2458.79 1421.93 L2458.79 1416.86 L2467.70 1416.86 L2467.70 1413.64 L2476.49 1413.64 L2476.49 1409.80 L2485.40 1409.80 L2485.40 1408.57 L2494.18 1408.57 L2494.18 1406.09 L2503.09 1406.09 L2503.09 1400.89 L2512.00 1400.89 L2512.00 1398.42 L2520.79 1398.42 L2520.79 1396.44 L2529.70 1396.44 L2529.70 1394.58 L2538.48 1394.58 L2538.48 1391.36 L2547.39 1391.36 L2547.39 1388.15 L2556.18 1388.15 L2556.18 1387.53 L2565.09 1387.53 L2565.09 1384.31 L2573.88 1384.31 L2573.88 1379.86 L2582.79 1379.86 L2582.79 1376.64 L2591.57 1376.64 L2591.57 1372.80 L2600.48 1372.80 L2600.48 1367.73 L2609.27 1367.73 L2609.27 1365.25 L2618.18 1365.25 L2618.18 1361.42 L2627.09 1361.42 L2627.09 1358.82 L2635.88 1358.82 L2635.88 1356.96 L2644.79 1356.96 L2644.79 1350.53 L2653.57 1350.53 L2653.57 1348.67 L2662.48 1348.67 L2662.48 1344.09 L2671.27 1344.09 L2671.27 1340.38 L2680.18 1340.38 L2680.18 1335.18 L2688.96 1335.18 L2688.96 1332.71 L2697.87 1332.71 L2697.87 1329.49 L2706.66 1329.49 L2706.66 1327.51 L2715.57 1327.51 L2715.57 1323.67 L2724.36 1323.67 L2724.36 1320.58 L2733.27 1320.58 L2733.27 1319.22 L2742.18 1319.22 L2742.18 1316.12 L2750.96 1316.12 L2750.96 1310.92 L2759.87 1310.92 L2759.87 1307.83 L2768.66 1307.83 L2768.66 1305.23 L2777.57 1305.23 L2777.57 1302.63 L2786.36 1302.63 L2786.36 1299.54 L2795.27 1299.54 L2795.27 1296.94 L2804.05 1296.94 L2804.05 1295.70 L2812.96 1295.70 L2812.96 1293.72 L2821.75 1293.72 L2821.75 1290.51 L2830.66 1290.51 L2830.66 1287.41 L2839.57 1287.41 L2839.57 1284.19 L2848.35 1284.19 L2848.35 1282.21 L2857.26 1282.21 L2857.26 1280.36 L2866.05 1280.36 L2866.05 1277.76 L2874.96 1277.76 L2874.96 1275.90 L2883.75 1275.90 L2883.75 1273.92 L2892.66 1273.92 L2892.66 1273.30 L2901.44 1273.30 L2901.44 1270.09 L2910.35 1270.09 L2910.35 1267.61 L2919.14 1267.61 L2919.14 1263.16 L2928.05 1263.16 L2928.05 1261.79 L2936.84 1261.79 L2936.84 1258.70 L2945.75 1258.70 L2945.75 1257.34 L2954.66 1257.34 L2954.66 1256.10 L2963.44 1256.10 L2963.44 1251.65 L2972.35 1251.65 L2972.35 1248.43 L2981.14 1248.43 L2981.14 1247.19 L2990.05 1247.19 L2990.05 1245.21 L2998.83 1245.21 L2998.83 1242.74 L3007.74 1242.74 L3007.74 1241.38 L3016.53 1241.38 L3016.53 1238.90 L3025.44 1238.90 L3025.44 1236.30 L3034.23 1236.30 L3034.23 1232.46 L3043.14 1232.46 L3043.14 1228.01 L3052.05 1228.01 L3052.05 1227.39 L3060.83 1227.39 L3060.83 1226.15 L3069.74 1226.15 L3069.74 1219.10 L3078.53 1219.10 L3078.53 1217.86 L3087.44 1217.86 L3087.44 1214.03 L3096.23 1214.03 L3096.23 1211.43 L3105.14 1211.43 L3105.14 1207.59 L3113.92 1207.59 L3113.92 1203.14 L3122.83 1203.14 L3122.83 1200.54 L3131.62 1200.54 L3131.62 1198.68 L3140.53 1198.68 L3140.53 1194.84 L3149.31 1194.84 L3149.31 1191.01 L3158.22 1191.01 L3158.22 1188.53 L3167.13 1188.53 L3167.13 1185.93 L3175.92 1185.93 L3175.92 1184.57 L3184.83 1184.57 L3184.83 1181.97 L3193.62 1181.97 L3193.62 1179.99 L3202.53 1179.99 L3202.53 1175.91 L3211.31 1175.91 L3211.31 1170.34 L3220.22 1170.34 L3220.22 1168.98 L3229.01 1168.98 L3229.01 1164.65 L3237.92 1164.65 L3237.92 1161.68 L3246.71 1161.68 L3246.71 1159.45 L3255.62 1159.45 L3255.62 1155.74 L3264.53 1155.74 L3264.53 1154.99 L3273.31 1154.99 L3273.31 1150.42 L3282.22 1150.42 L3282.22 1144.97 L3291.01 1144.97 L3291.01 1141.13 L3299.92 1141.13 L3299.92 1138.78 L3308.70 1138.78 L3308.70 1136.31 L3317.61 1136.31 L3317.61 1133.83 L3326.40 1133.83 L3326.40 1132.97 L3335.31 1132.97 L3335.31 1132.10 L3344.10 1132.10 L3344.10 1130.24 L3353.01 1130.24 L3353.01 1129.38 L3361.79 1129.38 L3361.79 1127.40 L3370.70 1127.40 L3370.70 1125.54 L3379.61 1125.54 L3379.61 1125.54 L3388.40 1125.54 L3388.40 1123.56 L3397.31 1123.56 L3397.31 1122.57 L3406.10 1122.57 L3406.10 1118.36 L3415.01 1118.36 L3415.01 1117.37 L3423.79 1117.37 L3423.79 1117.37 L3432.70 1117.37 L3432.70 1116.26 L3441.49 1116.26 L3441.49 1116.26 L3450.40 1116.26 L3450.40 1112.92 L3459.18 1112.92 L3459.18 1110.69 L3468.09 1110.69 L3468.09 1108.34 L3477.00 1108.34 L3477.00 1108.34 L3485.79 1108.34 L3485.79 1104.50 L3494.70 1104.50 L3494.70 1100.54 L3503.49 1100.54 L3503.49 1100.54 L3512.40 1100.54 L3512.40 1096.46 L3521.18 1096.46 L3521.18 1096.46 L3530.09 1096.46 L3530.09 1094.97 L3538.88 1094.97 L3538.88 1092.00 L3547.79 1092.00 L3547.79 1084.08 L3556.58 1084.08 L3556.58 1080.87 L3565.49 1080.87 L3565.49 1077.52 L3574.27 1077.52 L3574.27 1075.79 L3583.18 1075.79 L3583.18 1073.94 L3592.09 1073.94 L3592.09 1068.12 L3600.88 1068.12 L3600.88 1066.02 L3609.79 1066.02 L3609.79 1063.79 L3618.57 1063.79 L3618.57 1059.09 L3627.48 1059.09 L3627.48 1054.01 L3636.27 1054.01 L3636.27 1051.04 L3645.18 1051.04 L3645.18 1041.64 L3653.97 1041.64 L3653.97 1041.64 L3662.88 1041.64 L3662.88 1041.64 L3671.66 1041.64 L3671.66 1041.64 L3680.57 1041.64 L3680.57 1037.55 L3689.36 1037.55 L3689.36 1037.55 L3698.27 1037.55 L3698.27 1037.55 L3707.18 1037.55 L3707.18 1031.86 L3715.97 1031.86 L3715.97 1025.55 L3724.88 1025.55 L3724.88 1025.55 L3733.66 1025.55 L3733.66 1009.21 L3742.57 1009.21 L3742.57 1009.21 L3751.36 1009.21 L3751.36 1009.21 L3760.27 1009.21 L3760.27 1009.21 L3769.05 1009.21 L3769.05 1009.21 L3777.96 1009.21 L3777.96 1009.21 L3786.75 1009.21 L3786.75 1009.21 L3795.66 1009.21 L3795.66 1009.21" stroke-linejoin="round" style="fill:none;stroke:#E37E00;stroke-width:8.64"/>
	<path d=" M493.39 2311.35 L493.39 2311.35 L493.39 2311.35 L493.39 2311.35 L493.39 2311.35 L493.39 2311.35 L493.39 2311.35 L493.39 2311.35 L493.39 2311.35 L502.30 2311.35 L502.30 2305.78 L511.09 2305.78 L511.09 2294.40 L520.00 2294.40 L520.00 2288.83 L528.78 2288.83 L528.78 2269.03 L537.69 2269.03 L537.69 2246.38 L546.48 2246.38 L546.48 2226.70 L555.39 2226.70 L555.39 2223.86 L564.18 2223.86 L564.18 2221.01 L573.09 2221.01 L573.09 2212.60 L581.87 2212.60 L581.87 2204.06 L590.78 2204.06 L590.78 2195.64 L599.69 2195.64 L599.69 2181.53 L608.48 2181.53 L608.48 2172.99 L617.39 2172.99 L617.39 2167.30 L626.17 2167.30 L626.17 2153.19 L635.09 2153.19 L635.09 2130.67 L643.87 2130.67 L643.87 2119.41 L652.78 2119.41 L652.78 2105.30 L661.57 2105.30 L661.57 2102.45 L670.48 2102.45 L670.48 2093.92 L679.26 2093.92 L679.26 2088.35 L688.17 2088.35 L688.17 2074.24 L697.08 2074.24 L697.08 2065.70 L705.87 2065.70 L705.87 2057.28 L714.78 2057.28 L714.78 2045.90 L723.57 2045.90 L723.57 2037.48 L732.48 2037.48 L732.48 2028.94 L741.26 2028.94 L741.26 2014.84 L750.17 2014.84 L750.17 2003.58 L758.96 2003.58 L758.96 1992.31 L767.87 1992.31 L767.87 1978.21 L776.66 1978.21 L776.66 1961.25 L785.57 1961.25 L785.57 1952.71 L794.35 1952.71 L794.35 1944.30 L803.26 1944.30 L803.26 1935.76 L812.17 1935.76 L812.17 1921.65 L820.96 1921.65 L820.96 1916.08 L829.87 1916.08 L829.87 1901.97 L838.65 1901.97 L838.65 1890.59 L856.35 1890.59 L856.35 1876.48 L865.26 1876.48 L865.26 1870.91 L874.05 1870.91 L874.05 1862.37 L882.96 1862.37 L882.96 1853.96 L891.74 1853.96 L891.74 1845.42 L900.65 1845.42 L900.65 1831.31 L909.56 1831.31 L909.56 1820.05 L918.35 1820.05 L918.35 1817.20 L927.26 1817.20 L927.26 1814.36 L936.05 1814.36 L936.05 1805.94 L944.96 1805.94 L944.96 1800.25 L953.74 1800.25 L953.74 1791.83 L962.65 1791.83 L962.65 1786.14 L971.44 1786.14 L971.44 1777.72 L980.35 1777.72 L980.35 1766.34 L989.13 1766.34 L989.13 1757.92 L998.04 1757.92 L998.04 1738.12 L1006.83 1738.12 L1006.83 1735.28 L1015.74 1735.28 L1015.74 1732.55 L1024.65 1732.55 L1024.65 1726.86 L1033.44 1726.86 L1033.44 1721.17 L1042.35 1721.17 L1042.35 1718.45 L1051.13 1718.45 L1051.13 1704.21 L1060.04 1704.21 L1060.04 1701.49 L1068.83 1701.49 L1068.83 1687.38 L1077.74 1687.38 L1077.74 1684.54 L1086.53 1684.54 L1086.53 1676.00 L1095.44 1676.00 L1095.44 1670.43 L1104.22 1670.43 L1104.22 1661.89 L1113.13 1661.89 L1113.13 1659.04 L1122.04 1659.04 L1122.04 1644.94 L1130.83 1644.94 L1130.83 1642.09 L1139.74 1642.09 L1139.74 1639.37 L1148.52 1639.37 L1148.52 1627.98 L1157.43 1627.98 L1157.43 1625.26 L1166.22 1625.26 L1166.22 1616.72 L1175.13 1616.72 L1175.13 1613.87 L1183.92 1613.87 L1183.92 1602.61 L1201.61 1602.61 L1201.61 1594.20 L1210.52 1594.20 L1210.52 1585.66 L1219.31 1585.66 L1219.31 1574.40 L1228.22 1574.40 L1228.22 1571.55 L1237.13 1571.55 L1237.13 1560.29 L1245.92 1560.29 L1245.92 1551.75 L1254.83 1551.75 L1254.83 1546.18 L1263.61 1546.18 L1263.61 1534.80 L1272.52 1534.80 L1272.52 1523.53 L1281.31 1523.53 L1281.31 1509.43 L1290.22 1509.43 L1290.22 1506.58 L1299.00 1506.58 L1299.00 1503.73 L1307.91 1503.73 L1307.91 1498.16 L1316.70 1498.16 L1316.70 1495.32 L1325.61 1495.32 L1325.61 1484.06 L1334.52 1484.06 L1334.52 1475.52 L1343.31 1475.52 L1343.31 1472.67 L1352.22 1472.67 L1352.22 1469.95 L1361.00 1469.95 L1361.00 1467.10 L1369.91 1467.10 L1369.91 1464.26 L1378.70 1464.26 L1378.70 1458.56 L1387.61 1458.56 L1387.61 1452.99 L1396.40 1452.99 L1396.40 1444.46 L1405.31 1444.46 L1405.31 1433.19 L1414.09 1433.19 L1414.09 1424.78 L1423.00 1424.78 L1423.00 1419.09 L1431.79 1419.09 L1431.79 1410.55 L1440.70 1410.55 L1440.70 1404.98 L1449.61 1404.98 L1449.61 1390.87 L1458.39 1390.87 L1458.39 1382.33 L1467.30 1382.33 L1467.30 1379.48 L1476.09 1379.48 L1476.09 1362.65 L1485.00 1362.65 L1485.00 1359.81 L1493.79 1359.81 L1493.79 1354.11 L1502.70 1354.11 L1502.70 1351.27 L1511.48 1351.27 L1511.48 1342.85 L1520.39 1342.85 L1520.39 1337.16 L1529.18 1337.16 L1529.18 1314.64 L1546.88 1314.64 L1546.88 1308.94 L1564.70 1308.94 L1564.70 1306.10 L1573.48 1306.10 L1573.48 1303.25 L1582.39 1303.25 L1582.39 1289.14 L1591.18 1289.14 L1591.18 1283.58 L1600.09 1283.58 L1600.09 1277.88 L1608.87 1277.88 L1608.87 1272.19 L1617.78 1272.19 L1617.78 1269.47 L1626.57 1269.47 L1626.57 1266.62 L1635.48 1266.62 L1635.48 1260.93 L1644.27 1260.93 L1644.27 1255.24 L1653.18 1255.24 L1653.18 1252.51 L1662.09 1252.51 L1662.09 1243.97 L1670.87 1243.97 L1670.87 1241.13 L1679.78 1241.13 L1679.78 1235.56 L1688.57 1235.56 L1688.57 1227.02 L1697.48 1227.02 L1697.48 1221.45 L1706.27 1221.45 L1706.27 1218.60 L1715.18 1218.60 L1715.18 1207.34 L1723.96 1207.34 L1723.96 1201.65 L1732.87 1201.65 L1732.87 1198.80 L1750.57 1198.80 L1750.57 1187.54 L1759.35 1187.54 L1759.35 1184.70 L1768.26 1184.70 L1768.26 1179.00 L1777.17 1179.00 L1777.17 1170.59 L1785.96 1170.59 L1785.96 1167.74 L1794.87 1167.74 L1794.87 1153.63 L1803.66 1153.63 L1803.66 1139.53 L1812.57 1139.53 L1812.57 1136.68 L1821.35 1136.68 L1821.35 1133.83 L1839.05 1133.83 L1839.05 1125.42 L1847.96 1125.42 L1847.96 1119.72 L1856.75 1119.72 L1856.75 1108.46 L1865.66 1108.46 L1865.66 1100.05 L1874.57 1100.05 L1874.57 1094.36 L1892.26 1094.36 L1892.26 1083.09 L1901.05 1083.09 L1901.05 1080.25 L1909.96 1080.25 L1909.96 1077.40 L1918.74 1077.40 L1918.74 1066.14 L1936.44 1066.14 L1936.44 1063.29 L1945.35 1063.29 L1945.35 1057.60 L1954.14 1057.60 L1954.14 1054.75 L1963.05 1054.75 L1963.05 1052.03 L1971.83 1052.03 L1971.83 1049.19 L1980.74 1049.19 L1980.74 1046.34 L1989.65 1046.34 L1989.65 1035.08 L1998.44 1035.08 L1998.44 1026.54 L2007.35 1026.54 L2007.35 1023.69 L2016.14 1023.69 L2016.14 1018.12 L2025.05 1018.12 L2025.05 1012.43 L2033.83 1012.43 L2033.83 1009.58 L2042.74 1009.58 L2042.74 1006.86 L2060.44 1006.86 L2060.44 1004.02 L2078.13 1004.02 L2078.13 1001.17 L2087.04 1001.17 L2087.04 995.48 L2095.83 995.48 L2095.83 989.91 L2104.74 989.91 L2104.74 987.06 L2113.53 987.06 L2113.53 984.21 L2131.22 984.21 L2131.22 981.37 L2140.13 981.37 L2140.13 978.52 L2157.83 978.52 L2157.83 975.80 L2166.61 975.80 L2166.61 972.95 L2175.53 972.95 L2175.53 970.11 L2202.13 970.11 L2202.13 967.26 L2219.83 967.26 L2219.83 961.57 L2228.61 961.57 L2228.61 947.46 L2246.31 947.46 L2246.31 944.74 L2255.22 944.74 L2255.22 939.04 L2264.01 939.04 L2264.01 933.35 L2290.61 933.35 L2290.61 930.51 L2299.52 930.51 L2299.52 927.78 L2308.31 927.78 L2308.31 924.94 L2317.22 924.94 L2317.22 913.67 L2326.01 913.67 L2326.01 910.83 L2334.92 910.83 L2334.92 907.98 L2343.70 907.98 L2343.70 905.14 L2352.61 905.14 L2352.61 902.29 L2361.40 902.29 L2361.40 893.87 L2370.31 893.87 L2370.31 891.03 L2388.00 891.03 L2388.00 888.18 L2396.79 888.18 L2396.79 885.34 L2423.40 885.34 L2423.40 879.77 L2432.31 879.77 L2432.31 876.92 L2441.09 876.92 L2441.09 874.07 L2450.00 874.07 L2450.00 868.50 L2458.79 868.50 L2458.79 865.66 L2467.70 865.66 L2467.70 862.81 L2476.49 862.81 L2476.49 859.97 L2485.40 859.97 L2485.40 857.12 L2503.09 857.12 L2503.09 854.27 L2512.00 854.27 L2512.00 848.70 L2520.79 848.70 L2520.79 843.01 L2547.39 843.01 L2547.39 840.17 L2556.18 840.17 L2556.18 837.44 L2565.09 837.44 L2565.09 828.90 L2573.88 828.90 L2573.88 826.06 L2591.57 826.06 L2591.57 823.21 L2609.27 823.21 L2609.27 817.64 L2627.09 817.64 L2627.09 814.80 L2635.88 814.80 L2635.88 811.95 L2653.57 811.95 L2653.57 809.10 L2662.48 809.10 L2662.48 806.38 L2671.27 806.38 L2671.27 803.53 L2680.18 803.53 L2680.18 794.99 L2688.96 794.99 L2688.96 792.15 L2697.87 792.15 L2697.87 789.43 L2706.66 789.43 L2706.66 786.58 L2742.18 786.58 L2742.18 783.73 L2750.96 783.73 L2750.96 780.89 L2759.87 780.89 L2759.87 775.32 L2768.66 775.32 L2768.66 769.63 L2795.27 769.63 L2795.27 763.93 L2804.05 763.93 L2804.05 761.09 L2812.96 761.09 L2812.96 758.36 L2821.75 758.36 L2821.75 755.52 L2830.66 755.52 L2830.66 752.67 L2839.57 752.67 L2839.57 749.82 L2857.26 749.82 L2857.26 746.98 L2874.96 746.98 L2874.96 741.41 L2892.66 741.41 L2892.66 738.56 L2901.44 738.56 L2901.44 735.72 L2910.35 735.72 L2910.35 730.02 L2919.14 730.02 L2919.14 721.61 L2945.75 721.61 L2945.75 718.76 L2954.66 718.76 L2954.66 715.92 L2963.44 715.92 L2963.44 713.19 L2972.35 713.19 L2972.35 710.35 L2981.14 710.35 L2981.14 704.65 L2990.05 704.65 L2990.05 701.81 L3007.74 701.81 L3007.74 698.96 L3016.53 698.96 L3016.53 693.39 L3034.23 693.39 L3034.23 687.70 L3043.14 687.70 L3043.14 676.44 L3052.05 676.44 L3052.05 670.75 L3060.83 670.75 L3060.83 667.90 L3069.74 667.90 L3069.74 665.18 L3078.53 665.18 L3078.53 662.33 L3087.44 662.33 L3087.44 659.48 L3105.14 659.48 L3105.14 656.64 L3122.83 656.64 L3122.83 653.79 L3140.53 653.79 L3140.53 648.22 L3158.22 648.22 L3158.22 645.38 L3167.13 645.38 L3167.13 645.38 L3175.92 645.38 L3175.92 639.68 L3184.83 639.68 L3184.83 633.87 L3193.62 633.87 L3193.62 633.87 L3202.53 633.87 L3202.53 633.87 L3211.31 633.87 L3211.31 633.87 L3220.22 633.87 L3220.22 633.87 L3229.01 633.87 L3229.01 633.87 L3237.92 633.87 L3237.92 627.80 L3246.71 627.80 L3246.71 624.59 L3264.53 624.59 L3264.53 621.37 L3273.31 621.37 L3273.31 618.15 L3282.22 618.15 L3282.22 618.15 L3291.01 618.15 L3291.01 611.34 L3299.92 611.34 L3299.92 604.54 L3308.70 604.54 L3308.70 604.54 L3317.61 604.54 L3317.61 604.54 L3326.40 604.54 L3326.40 600.83 L3335.31 600.83 L3335.31 600.83 L3344.10 600.83 L3344.10 600.83 L3353.01 600.83 L3353.01 596.99 L3361.79 596.99 L3361.79 593.03 L3370.70 593.03 L3370.70 593.03 L3379.61 593.03 L3379.61 589.07 L3388.40 589.07 L3388.40 589.07 L3397.31 589.07 L3397.31 589.07 L3415.01 589.07 L3415.01 589.07 L3432.70 589.07 L3432.70 589.07 L3441.49 589.07 L3441.49 589.07 L3450.40 589.07 L3450.40 578.92 L3459.18 578.92 L3459.18 573.72 L3477.00 573.72 L3477.00 573.72 L3485.79 573.72 L3485.79 573.72 L3494.70 573.72 L3494.70 573.72 L3503.49 573.72 L3503.49 573.72 L3512.40 573.72 L3512.40 573.72 L3521.18 573.72 L3521.18 567.54 L3530.09 567.54 L3530.09 567.54 L3538.88 567.54 L3538.88 567.54 L3547.79 567.54 L3547.79 560.61 L3556.58 560.61 L3556.58 553.55 L3565.49 553.55 L3565.49 546.13 L3574.27 546.13 L3574.27 546.13 L3583.18 546.13 L3583.18 546.13 L3592.09 546.13 L3592.09 546.13 L3618.57 546.13 L3618.57 546.13 L3627.48 546.13 L3627.48 546.13 L3636.27 546.13 L3636.27 530.90 L3645.18 530.90 L3645.18 515.06 L3653.97 515.06 L3653.97 515.06 L3662.88 515.06 L3662.88 515.06 L3671.66 515.06 L3671.66 515.06 L3680.57 515.06 L3680.57 515.06 L3689.36 515.06 L3689.36 483.38 L3698.27 483.38 L3698.27 483.38 L3707.18 483.38 L3707.18 483.38 L3724.88 483.38 L3724.88 483.38 L3733.66 483.38 L3733.66 483.38 L3742.57 483.38 L3742.57 483.38 L3760.27 483.38 L3760.27 483.38 L3769.05 483.38 L3769.05 483.38 L3777.96 483.38 L3777.96 483.38 L3786.75 483.38 L3786.75 483.38" stroke-linejoin="round" style="fill:none;stroke:#6E8E84;stroke-width:8.64"/>
	<line x1="430.16" y1="2374.71" x2="430.16" y2="419.90" style="stroke:#000000;stroke-width:5.76"/>
	<line x1="430.16" y1="2311.35" x2="390.06" y2="2311.35" style="stroke:#000000;stroke-width:5.76"/>
	<text x="370.14" y="2346.38" style="font-family:'Helvetica';font-size:99.99px;fill:#000000" text-anchor="end">0</text>
	<line x1="430.16" y1="1869.67" x2="390.06" y2="1869.67" style="stroke:#000000;stroke-width:5.76"/>
	<text x="370.14" y="1904.70" style="font-family:'Helvetica';font-size:99.99px;fill:#000000" text-anchor="end">20</text>
	<line x1="430.16" y1="1428.00" x2="390.06" y2="1428.00" style="stroke:#000000;stroke-width:5.76"/>
	<text x="370.14" y="1463.02" style="font-family:'Helvetica';font-size:99.99px;fill:#000000" text-anchor="end">40</text>
	<line x1="430.16" y1="986.44" x2="390.06" y2="986.44" style="stroke:#000000;stroke-width:5.76"/>
	<text x="370.14" y="1021.47" style="font-family:'Helvetica';font-size:99.99px;fill:#000000" text-anchor="end">60</text>
	<line x1="430.16" y1="544.76" x2="390.06" y2="544.76" style="stroke:#000000;stroke-width:5.76"/>
	<text x="370.14" y="579.79" style="font-family:'Helvetica';font-size:99.99px;fill:#000000" text-anchor="end">80</text>
	<text x="167.43" y="1417.24" style="font-family:'Helvetica';font-size:99.99px;fill:#000000" text-anchor="middle">%</text>
	<line x1="430.16" y1="2374.71" x2="3859.02" y2="2374.71" style="stroke:#000000;stroke-width:5.76"/>
	<line x1="493.52" y1="2374.71" x2="493.52" y2="2414.69" style="stroke:#000000;stroke-width:5.76"/>
	<text x="493.52" y="2504.54" style="font-family:'Helvetica';font-size:99.99px;fill:#000000" text-anchor="middle">0</text>
	<line x1="1555.91" y1="2374.71" x2="1555.91" y2="2414.69" style="stroke:#000000;stroke-width:5.76"/>
	<text x="1555.91" y="2504.54" style="font-family:'Helvetica';font-size:99.99px;fill:#000000" text-anchor="middle">10</text>
	<line x1="2618.18" y1="2374.71" x2="2618.18" y2="2414.69" style="stroke:#000000;stroke-width:5.76"/>
	<text x="2618.18" y="2504.54" style="font-family:'Helvetica';font-size:99.99px;fill:#000000" text-anchor="middle">20</text>
	<line x1="3680.57" y1="2374.71" x2="3680.57" y2="2414.69" style="stroke:#000000;stroke-width:5.76"/>
	<text x="3680.57" y="2504.54" style="font-family:'Helvetica';font-size:99.99px;fill:#000000" text-anchor="middle">30</text>
	<text x="2144.59" y="2614.56" style="font-family:'Helvetica';font-size:99.99px;fill:#000000" text-anchor="middle">Years</text>
	<rect x="464.68" y="454.42" width="946.81" height="746.48" style="fill:#FFFFFF"/>
	<rect x="467.56" y="457.30" width="941.05" height="740.72" style="fill:none;stroke:#000000;stroke-width:5.76"/>
	<line x1="507.87" y1="547.73" x2="882.21" y2="547.73" style="stroke:#6E8E84;stroke-width:8.64"/>
	<line x1="507.87" y1="687.70" x2="882.21" y2="687.70" style="stroke:#E37E00;stroke-width:8.64"/>
	<line x1="507.87" y1="827.67" x2="882.21" y2="827.67" style="stroke:#55752F;stroke-width:8.64"/>
	<line x1="507.87" y1="967.63" x2="882.21" y2="967.63" style="stroke:#90353B;stroke-width:8.64"/>
	<line x1="507.87" y1="1107.72" x2="882.21" y2="1107.72" style="stroke:#1A476F;stroke-width:8.64"/>
	<text x="942.23" y="582.76" style="font-family:'Helvetica';font-size:99.99px;fill:#000000">Poor</text>
	<text x="942.23" y="722.73" style="font-family:'Helvetica';font-size:99.99px;fill:#000000">Bad</text>
	<text x="942.23" y="862.69" style="font-family:'Helvetica';font-size:99.99px;fill:#000000">Fair</text>
	<text x="942.23" y="1002.66" style="font-family:'Helvetica';font-size:99.99px;fill:#000000">Good</text>
	<text x="942.23" y="1142.75" style="font-family:'Helvetica';font-size:99.99px;fill:#000000">Excellent</text>
	<text x="447.36" y="2737.89" style="font-family:'Helvetica';font-size:79.94px;fill:#000000">Source: RDC/NCHS/CDC/DHHS</text>
	<text x="447.36" y="369.63" style="font-family:'Helvetica';font-size:110.01px;fill:#000000">by self report: Is health in general excellent,...,poor</text>
	<text x="447.36" y="215.98" style="font-family:'Helvetica';font-size:139.96px;fill:#1E2D53">Morality in NHANES III</text>
</svg>
